<?xml version="1.0" encoding="utf-8"?>
<!-- Generator: Adobe Illustrator 22.0.1, SVG Export Plug-In . SVG Version: 6.00 Build 0)  -->
<svg version="1.1" id="Layer_1" xmlns="http://www.w3.org/2000/svg" xmlns:xlink="http://www.w3.org/1999/xlink" x="0px" y="0px"
	 viewBox="0 0 600 600" style="enable-background:new 0 0 600 600;" xml:space="preserve">
<style type="text/css">
	.Drop_x0020_Shadow{fill:none;}
	.Round_x0020_Corners_x0020_2_x0020_pt{fill:#FFFFFF;stroke:#231F20;stroke-miterlimit:10;}
	.Live_x0020_Reflect_x0020_X{fill:none;}
	.Bevel_x0020_Soft{fill:url(#SVGID_1_);}
	.Dusk{fill:#FFFFFF;}
	.Foliage_GS{fill:#FFDD00;}
	.Pompadour_GS{fill-rule:evenodd;clip-rule:evenodd;fill:#44ADE2;}
	.st0{fill:url(#SVGID_2_);}
	.st1{fill:url(#SVGID_3_);}
	.st2{fill:#CBFF3D;}
	.st3{opacity:0.2;fill:#005733;}
	.st4{opacity:0.5;fill:#CBFF3D;}
	.st5{fill:#328700;}
	.st6{fill:#083619;}
	.st7{fill:#D8FFAB;}
	.st8{opacity:0.35;fill:#005726;}
	.st9{fill:#AFFF26;}
	.st10{fill:#05521F;}
	.st11{fill:#FFF9F0;}
	.st12{fill:#E8DAC5;}
	.st13{opacity:0.6;fill:#AFFF26;}
</style>
<linearGradient id="SVGID_1_" gradientUnits="userSpaceOnUse" x1="0" y1="0" x2="0.7071" y2="0.7071">
	<stop  offset="0" style="stop-color:#DEDFE3"/>
	<stop  offset="0.1783" style="stop-color:#DADBDF"/>
	<stop  offset="0.3611" style="stop-color:#CECFD3"/>
	<stop  offset="0.546" style="stop-color:#B9BCBF"/>
	<stop  offset="0.7324" style="stop-color:#9CA0A2"/>
	<stop  offset="0.9181" style="stop-color:#787D7E"/>
	<stop  offset="1" style="stop-color:#656B6C"/>
</linearGradient>
<g>
	<g>
		<g>
			<radialGradient id="SVGID_2_" cx="313.5275" cy="449.2519" r="209.2899" gradientUnits="userSpaceOnUse">
				<stop  offset="0" style="stop-color:#43B800"/>
				<stop  offset="0.1446" style="stop-color:#4CBC02"/>
				<stop  offset="0.3782" style="stop-color:#64C508"/>
				<stop  offset="0.6715" style="stop-color:#8AD611"/>
				<stop  offset="1" style="stop-color:#BEEB1E"/>
			</radialGradient>
			<path class="st0" d="M295.904,521.773c3.335,32.524-8.339,58.379-14.177,66.715c-5.838,8.343,29.193,20.017,34.611,2.087
				c5.095-16.867,5.42-41.282-5.01-72.136L295.904,521.773z"/>
			<radialGradient id="SVGID_3_" cx="316.4966" cy="354.8211" r="402.7959" gradientUnits="userSpaceOnUse">
				<stop  offset="0" style="stop-color:#43B800"/>
				<stop  offset="0.1446" style="stop-color:#4CBC02"/>
				<stop  offset="0.3782" style="stop-color:#64C508"/>
				<stop  offset="0.6715" style="stop-color:#8AD611"/>
				<stop  offset="1" style="stop-color:#BEEB1E"/>
			</radialGradient>
			<path class="st1" d="M567.449,488.215c31.499-83.075-6.207-157.325-37.488-232.667c-17.107-41.216-20.299-82.361-5.426-124.408
				c-18.974,16.922-24.589,30.572-24.91,28.638c-1.648-10.161-2.658-20.413-2.851-30.77c-0.929-49.08,13.386-69.315,55.774-77.926
				C508.882,22.102,418.325,4.051,323.95,18.644C316.109,19.855,260.167,33.44,316.103,0
				C198.292,25.082,64.383,126.414,28.653,299.843c-47.825,232.173,128.983,380.223,278.741,230.143
				C379.946,628.462,522.763,606.071,567.449,488.215z"/>
			<g>
				<path class="st2" d="M74.685,539.355c0.379,0.458,0.592,0.698,0.592,0.698C75.072,539.825,74.882,539.582,74.685,539.355z"/>
				<path class="st2" d="M306.831,21.662c-14.749,1.675-27.32,0.211,9.272-21.662C198.292,25.082,62.447,120.075,28.653,299.843
					c-21.065,102.25,1.452,188.173,46.033,239.512c-7.108-8.584-76.006-97.381-30.07-262.987
					c70.561-254.421,356.308-296.1,507.933-225.287C506.242,20.351,407.225,1.93,306.831,21.662z"/>
			</g>
			<path class="st3" d="M561.231,485.476c47.32-126.585-70.553-236.041-72.84-357.208c-0.91-48.306,16.056-71.289,52.664-80.279
				C326.547,1.745,279.017,252.866,308.737,526.501C379.224,623.447,517.882,601.453,561.231,485.476z"/>
			<path class="st4" d="M530.976,41.058c0,0-182.206-55.742-218.442,202.079C349.838,30.932,500.269,37.393,552.548,51.081
				C543.466,46.308,530.976,41.058,530.976,41.058z"/>
			<path class="st4" d="M305.276,490.567c0,0,17.02,70.917,7.257,97.493c-2.795,7.621-24.508,5.889-20.753-0.827
				C310.665,553.353,305.276,490.567,305.276,490.567z"/>
		</g>
		<g>
			<path class="st5" d="M478.61,209.999c0.229-0.089,0.445-0.291,0.633-0.631c1.339-2.424-3.502-11.581-4.48-14.13
				c-4.349-11.372-10.661-22.334-19.478-30.808c-5.38-5.166-11.521-9.249-18.627-11.698c-9.761-3.361-20.685-3.822-28.687,3.561
				c-2.904,2.677-10.59,15.441-5.971,17.529c1.571,0.71,10.447-5.368,12.724-5.92c7.192-1.737,15.288-0.17,22.129,2.215
				c10.63,3.704,19.548,11.05,26.752,19.533c3.263,3.825,6.254,7.902,8.905,12.173C473.307,203.114,476.633,210.726,478.61,209.999z
				"/>
			<path class="st5" d="M123.358,211.45c-0.229-0.087-0.44-0.296-0.625-0.639c-1.296-2.452,3.729-11.522,4.746-14.045
				c4.555-11.284,11.073-22.129,20.047-30.442c5.476-5.072,11.685-9.038,18.834-11.352c9.829-3.189,20.753-3.438,28.614,4.089
				c2.867,2.728,10.302,15.637,5.648,17.635c-1.575,0.68-10.344-5.556-12.617-6.145c-7.148-1.877-15.268-0.449-22.158,1.801
				c-10.698,3.502-19.745,10.692-27.109,19.04c-3.335,3.757-6.398,7.773-9.126,12.003
				C128.796,204.672,125.317,212.217,123.358,211.45z"/>
			<g>
				<path class="st6" d="M457.057,214.047c19.852,14.359,14.525,52.821-2.218,69.675c-11.095-2.586-23.772-3.689-34.971,2.106
					C377.376,269.721,419.985,187.278,457.057,214.047z"/>
			</g>
			<path class="st7" d="M436.823,225.108c13.804,0.922,13.463,23.675,0.979,26.843C420.496,256.328,421.294,224.111,436.823,225.108
				z"/>
			<g>
				<path class="st6" d="M137.988,214.047c-19.857,14.359-14.525,52.821,2.215,69.675c11.091-2.586,23.768-3.689,34.971,2.106
					C217.669,269.721,175.058,187.278,137.988,214.047z"/>
			</g>
			<path class="st7" d="M158.214,225.108c-13.802,0.922-13.464,23.675-0.972,26.843
				C174.544,256.328,173.749,224.111,158.214,225.108z"/>
			<path class="st8" d="M335.687,296.078c-5.644-4.691-11.988,0.744-25.002,1.126c-11.719,0.345-16.928-3.731-24.642,0.237
				c-7.703,3.954,4.537,19.283,25.247,18.292C331.897,314.745,340.556,300.125,335.687,296.078z"/>
			<path class="st9" d="M331.052,276.814c-26.204-36.197-79.963,27.579-21.344,25.517
				C326.77,301.73,346.083,297.555,331.052,276.814z"/>
			<g>
				<path class="st8" d="M317.496,364.335c-57.81,3.087-139.355,11.395-185.442-9.111
					c78.197,103.133,121.065,109.459,180.452,111.006c74.456,1.912,103.355-30.069,113.954-62.696
					c4.506-13.801,41.421-49.951,55.798-58.311C436.137,355.812,387.408,360.595,317.496,364.335z"/>
				<path class="st10" d="M161.424,369.634c0,0,126.473,29.851,290.129-10.567c0,0-25.508,10.774-37.188,39.13
					c-10.682,25.922-50.047,44.704-110.455,45.162C209.621,444.051,161.424,369.634,161.424,369.634z"/>
				<path class="st11" d="M196.582,375.47c0,0,3.329,22.8,37.078,30.788c43.219,10.23,89.583,9.744,137.257,1.853
					c32.126-5.311,47.226-41.596,47.226-41.596S326.458,388.603,196.582,375.47z"/>
				<path class="st11" d="M213.102,408.085c-3.443-5.911-2.264-15.508,13.321-6.997c21.85,11.948,57.716,13.64,100.823,11.124
					c39.904-2.333,59.897-13.437,67.905-7.154c7.978,6.289-26.882,44.619-95.783,39.424
					C227.666,439.062,213.102,408.085,213.102,408.085z"/>
				<path class="st12" d="M205.47,391.387c0,0,161.024-16.412,199.876-4.577c0,0,11.094-12.924,12.796-20.294
					c0,0-112.324,21.532-221.561,8.955C196.582,375.47,199.219,386.032,205.47,391.387z"/>
				<path class="st12" d="M239.359,405.375c0,0,54.679,18.477,127.187,1.704C366.545,407.079,297.834,435.2,239.359,405.375z"/>
			</g>
			<path class="st13" d="M408.487,313.324c-6.213,24.453,52.095,38.275,66.351,14.738c10.994-18.146-5.72-30.354-25.608-32.073
				C431.742,294.473,411.942,299.691,408.487,313.324z"/>
			<path class="st13" d="M196.84,313.324c6.216,24.453-52.096,38.275-66.351,14.738c-10.995-18.146,5.723-30.354,25.61-32.073
				C173.585,294.473,193.381,299.691,196.84,313.324z"/>
		</g>
	</g>
</g>
</svg>
