<svg width="20" height="20" version="1" viewBox="0 0 40.616 43.906" xmlns="http://www.w3.org/2000/svg"><path d="M19.2 2.322c-3 3.2-2.9 8.1.3 11.2 4.8 4.9 12.5 1.6 12.5-5.4 0-7.2-8.1-10.8-12.8-5.8zm10 .4c2 1.8 2.4 6.3.8 9.3-1.9 3.5-8.8 3.3-11.2-.4-1.3-2-.8-6.9.9-8.8 2-2.2 7-2.3 9.5-.1zM15.6 18.522c-2 1.1-3.3 1.2-4 .5-1.6-1.6-4.6-1.2-3.9.6.6 1.7-4.2 7.4-6.4 7.4-.8 0-1.3 1.2-1.3 2.9 0 3.2 2.7 5.7 9.2 8.4 2.4 1 3.6 2.1 3.5 3.4-.2 2.4 4.5 3 6.3.9 1.8-2.2 11-2.2 11 0 0 1.1.8 1.4 3.2 1.2 3-.3 3.4-.8 5.5-6.8 3.1-9.1 2.3-19-1.4-17.6-.8.3-2.7-.1-4.3-.9-3.8-1.9-13.7-1.9-17.4 0zm18.3 2.1c2.8 1.5 5 2.8 4.8 3.1-.3.2-.2 1.6.3 3.1.4 1.6.2 4.1-.6 6.2-.7 1.9-1.5 4.7-1.8 6.2-.5 2.1-1.2 2.8-3.1 2.8-1.6 0-2.5-.6-2.5-1.5 0-1.3-1-1.4-5.7-.9-3.2.4-6.2 1-6.7 1.5-1.8 1.6-4.6 1-4.6-1 0-1.2-1-2.1-2.7-2.6-4.5-1-10.3-5.3-10.3-7.5 0-1.1.5-2 1.1-2 1.7 0 6.9-5.7 6.9-7.5 0-1.6.2-1.6 2.4-.2 2.1 1.4 2.6 1.4 3.6.2 2.7-3.2 12.2-3.2 18.9.1z"/><path d="M15.373 41.86c-.825-.289-1.252-.838-1.34-1.724-.132-1.352-1.05-2.182-2.996-2.711-2.909-.791-6.083-2.588-8.241-4.667-.818-.788-1.279-1.38-1.574-2.024-.26-.57-.227-1.34.087-1.963.254-.503.447-.654.962-.75.214-.04.567-.175.784-.3 1.702-.973 4.694-4.22 5.623-6.101.234-.473.288-.67.342-1.258.035-.383.094-.77.132-.86.145-.343.642-.149 2.314.908 1.134.717 1.584.937 2.044 1 .474.065.893-.157 1.412-.747 1.532-1.742 4.453-2.575 8.618-2.457 3.167.089 5.986.66 8.867 1.798 1.61.637 5.358 2.746 6.065 3.414.15.143.19.228.144.319-.033.068-.058.465-.055.883.005.634.05.927.275 1.772.32 1.207.397 2.194.267 3.4-.13 1.203-.32 1.976-.952 3.855a66.575 66.575 0 0 0-1.577 5.476c-.272 1.154-.607 1.868-1.064 2.27-.497.437-.907.551-1.982.551-1.139 0-1.614-.13-2.074-.565-.293-.277-.328-.349-.414-.848-.152-.882-.276-1.005-1.17-1.16-1.355-.237-6.721.375-9.608 1.096-.97.242-1.411.417-1.78.707-.704.554-1.406.808-2.221.803-.317-.002-.706-.053-.888-.117z" fill="#ffd5d5"/><path d="M23.53 14.38c-1.917-.298-3.619-1.267-4.55-2.59-.617-.878-.86-1.851-.86-3.45 0-1.62.327-3.195.913-4.4.62-1.276 1.648-2.072 3.258-2.522.67-.187.797-.198 2.123-.194 1.295.004 1.47.02 2.134.2.886.237 1.876.72 2.473 1.204.778.63 1.414 1.8 1.731 3.183.178.773.214 2.67.067 3.557-.255 1.55-.796 2.774-1.56 3.533-.59.586-1.108.895-2.009 1.2-1.159.393-2.393.486-3.72.28z" fill="#ffd42a"/></svg>
