<svg viewBox="0 0 263 413" xmlns="http://www.w3.org/2000/svg" xmlns:xlink="http://www.w3.org/1999/xlink"><defs><style></style><filter id="g" x="34.994" y="-8327.8" width="68.777" height="32766" color-interpolation-filters="sRGB" filterUnits="userSpaceOnUse"><feFlood flood-color="#fff" result="bg"/><feBlend in="SourceGraphic" in2="bg"/></filter><radialGradient id="b" cx="-350.65" cy="63787" r="28.685" gradientTransform="matrix(1.082 0 0 .154 448.82 -9471.7)" gradientUnits="userSpaceOnUse"><stop stop-color="#fff" offset="0"/><stop stop-color="#e0e0e0" offset=".076"/><stop stop-color="#9d9d9d" offset=".256"/><stop stop-color="#656565" offset=".427"/><stop stop-color="#393939" offset=".584"/><stop stop-color="#1a1a1a" offset=".725"/><stop stop-color="#070707" offset=".843"/><stop offset=".925"/></radialGradient><mask id="f" x="35.225" y="333.45" width="68.777" height="10.826" maskUnits="userSpaceOnUse"><g mask="url(#c)" transform="translate(.231)"><path d="M103.77 338.86c0 2.988-15.4 5.415-34.389 5.415s-34.388-2.427-34.388-5.415 15.4-5.412 34.388-5.412 34.389 2.423 34.389 5.412z" fill="url(#b)" style="mix-blend-mode:multiply"/></g></mask><radialGradient id="e" cx="-345.63" cy="64216" r="30.301" gradientTransform="matrix(1.036 0 0 .126 427.37 -7738.9)" gradientUnits="userSpaceOnUse"><stop offset="0"/><stop offset=".925"/></radialGradient><radialGradient id="a" cx="70.621" cy="320.88" r="25.866" gradientTransform="translate(.655 .468)" gradientUnits="userSpaceOnUse"><stop stop-color="#43b800" offset="0"/><stop stop-color="#4cbc02" offset=".145"/><stop stop-color="#64c508" offset=".378"/><stop stop-color="#8ad611" offset=".671"/><stop stop-color="#beeb1e" offset="1"/></radialGradient><radialGradient id="d" cx="70.988" cy="309.21" r="49.781" xlink:href="#a"/></defs><text x="78.27" y="28.339" fill="#0b6739" font-family="Arial" font-size="24" font-style="italic" font-weight="bold" letter-spacing="0" word-spacing="0" style="font-feature-settings:normal;font-variant-caps:normal;font-variant-ligatures:normal;font-variant-numeric:normal;line-height:125%"><tspan x="78.27" y="28.339">Benefits</tspan></text><text x="79.636" y="74.45" font-family="Arial" font-size="18.667" font-weight="bold" letter-spacing="0" word-spacing="0" style="font-feature-settings:normal;font-variant-caps:normal;font-variant-ligatures:normal;font-variant-numeric:normal;line-height:125%"><tspan x="79.636" y="74.45">Participate</tspan><tspan x="79.636" y="97.783" font-weight="normal" style="font-feature-settings:normal;font-variant-caps:normal;font-variant-ligatures:normal;font-variant-numeric:normal">in community fun</tspan></text><text x="79.429" y="143.828" font-family="Arial" font-size="18.667" font-weight="bold" letter-spacing="0" word-spacing="0" style="font-feature-settings:normal;font-variant-caps:normal;font-variant-ligatures:normal;font-variant-numeric:normal;line-height:125%"><tspan x="79.429" y="143.828">Save</tspan><tspan x="79.429" y="167.162" font-weight="normal" style="font-feature-settings:normal;font-variant-caps:normal;font-variant-ligatures:normal;font-variant-numeric:normal">money</tspan></text><rect x="1.5" y="1.5" width="260" height="410" rx="4.625" ry="4.625" fill="none" stroke="#8dc549" stroke-width="3"/><text x="81.55" y="215.887" font-family="Arial" font-size="18.667" font-weight="bold" letter-spacing="0" word-spacing="0" style="font-feature-settings:normal;font-variant-caps:normal;font-variant-ligatures:normal;font-variant-numeric:normal;line-height:125%"><tspan x="81.55" y="215.887">Save</tspan><tspan x="81.55" y="239.221" font-weight="normal" style="font-feature-settings:normal;font-variant-caps:normal;font-variant-ligatures:normal;font-variant-numeric:normal">electricity</tspan></text><text x="82.153" y="296.733" font-family="Arial" font-size="18.667" font-weight="bold" letter-spacing="0" word-spacing="0" style="font-feature-settings:normal;font-variant-caps:normal;font-variant-ligatures:normal;font-variant-numeric:normal;line-height:125%"><tspan x="82.153" y="296.733">Reduce</tspan><tspan x="82.153" y="320.066" font-weight="normal" style="font-feature-settings:normal;font-variant-caps:normal;font-variant-ligatures:normal;font-variant-numeric:normal">CO2</tspan></text><text x="82.878" y="373.357" font-family="Arial" font-size="18.667" font-weight="bold" letter-spacing="0" word-spacing="0" style="font-feature-settings:normal;font-variant-caps:normal;font-variant-ligatures:normal;font-variant-numeric:normal;line-height:125%"><tspan x="82.878" y="373.357">Grow</tspan><tspan x="82.878" y="396.69" font-weight="normal" style="font-feature-settings:normal;font-variant-caps:normal;font-variant-ligatures:normal;font-variant-numeric:normal">trees</tspan></text><path d="M40.057 51.137c.975-.188 2.023.174 2.747.978.757.794 1.166 2.059 1.06 3.245-.114 1.942-1.557 3.56-3.209 3.564-1.175.067-2.318-.683-2.927-1.867-.623-1.187-.636-2.774-.05-3.986.486-1.031 1.387-1.77 2.38-1.934z" fill="#ee5728" stroke-width="1.333"/><path d="M37.773 59.639c.759.87 1.68 1.321 2.733 1.397 1.072-.033 2.066-.498 2.836-1.388l.13.054c1.53 1.199 2.986 2.432 4.316 3.936.278.341.625.688.821 1.1-.788-.148-1.834-.317-2.56.163-.598.366-.813 1.202-.576 1.934-.368-.155-.7-.366-1.094-.422-.474-.064-.891.197-1.047.744-.334 1.2-.25 2.61-.319 3.86-.043 1.237-.107 2.61-.511 3.765-.262.695-.741 1.318-1.4 1.455-.631.151-1.43.069-1.908-.5-.582-.635-.784-1.543-.912-2.433-.28-1.884-.094-3.846-.375-5.713-.125-.652-.35-1.14-.97-1.193-1.365.07-2.564 1.753-3.842 2.196-.592.116-1.138-.035-1.424-.705-.296-.729-.062-1.445.247-2.098.23-.501.545-.916.824-1.374.171-.341.46-.601.69-.89a29.646 29.646 0 0 1 4.34-3.888z" fill="#f6851f" stroke-width="1.333"/><path d="M22.721 63.699c1.408.297 2.53 1.761 2.65 3.445.165 1.59-.585 3.2-1.8 3.904a2.89 2.89 0 0 1-2.918.044c-.923-.508-1.63-1.566-1.824-2.748-.222-1.286.111-2.666.909-3.588.769-.911 1.916-1.312 2.983-1.057z" fill="#0f75bd" stroke-width="1.333"/><path d="M59.7 64.099c1.068.05 2.098.774 2.643 1.863.788 1.505.595 3.561-.474 4.805-.86 1.043-2.21 1.438-3.38.97-1.061-.379-1.884-1.43-2.183-2.682-.287-1.305-.016-2.78.798-3.746.651-.85 1.633-1.29 2.596-1.21z" fill="#233489" stroke-width="1.333"/><path d="M32.498 64.41l.244.007c-.28.458-.594.873-.824 1.374-.31.653-.543 1.369-.247 2.097.285.67.831.822 1.424.706-.487.383-.91.818-1.008 1.54-.012.52.378.92.68 1.24 1.22 1.135 2.681 1.963 3.872 3.158.585.625 1.165 1.316 1.267 2.287.087.832-.252 1.635-.755 2.19-.57.572-1.296.634-2.002.439-1.386-.352-2.724-1.39-3.981-2.143-.603-.349-1.143-.73-1.823-.832-.506-.011-.794.452-.954.96-.431 1.635.197 3.392-.28 5.01-.368.858-1.313.953-1.916.395-.648-.6-.91-1.541-1.227-2.398-.592-2.465-.87-5.166-.92-7.719 1.006-.302 1.862-1.096 2.408-2.132.485-1.024.705-2.345.401-3.482.05-.121.15-.207.307-.258 1.715-1 3.482-1.862 5.334-2.439z" fill="#25aae4" stroke-width="1.333"/><path d="M48.609 64.737c2.13.542 4.181 1.596 6.117 2.759a5.57 5.57 0 0 0 .065 2.656c.387 1.429 1.454 2.641 2.689 3l.076.12c-.094 2.173-.268 4.42-.701 6.538-.122.506-.22 1.054-.417 1.527-.314-1.03-.648-2.171-1.36-2.919-.498-.538-1.233-.582-1.78-.112-.132-.56-.267-1.054-.746-1.32-.412-.127-.885.086-1.265.274-1.619.852-2.953 2.045-4.678 2.61-.62.176-1.395.227-1.952-.204-.726-.57-1.181-1.74-.922-2.756.206-.79.742-1.462 1.272-1.977 1.052-1.042 2.337-1.832 3.455-2.78.403-.357.977-.853 1.046-1.487-.052-.7-.527-1.198-.997-1.55-.935-.739-2.351-1.194-3.038-2.282-.237-.732-.023-1.567.575-1.933.726-.48 1.772-.312 2.561-.164z" fill="#0f75bd" stroke-width="1.333"/><path d="M36.937 66.398c.62.053.845.54.97 1.193.281 1.867.095 3.828.375 5.713.128.89.33 1.798.912 2.433.478.568 1.277.651 1.91.5.657-.138 1.136-.76 1.398-1.455.404-1.156.468-2.529.512-3.765.068-1.25-.015-2.66.318-3.86.156-.548.573-.808 1.047-.745.393.057.727.268 1.094.422.688 1.088 2.104 1.543 3.038 2.282.47.352.945.85.997 1.55-.068.634-.642 1.13-1.046 1.487-1.117.948-2.403 1.738-3.455 2.78-.53.515-1.065 1.188-1.272 1.978-.259 1.015.197 2.185.923 2.755.556.43 1.331.38 1.952.204 1.724-.565 3.059-1.758 4.678-2.61.38-.188.852-.4 1.264-.274.48.266.615.76.746 1.32-.17.273-.304.547-.345.888-.203 1.404.242 2.912.032 4.318-.08.477-.235.93-.604 1.191-.427.199-.883-.002-1.293-.167-1.456-.665-2.873-1.775-4.454-2.301a3.186 3.186 0 0 0-1.667-.132c-.89.22-1.468 1.265-1.553 2.283-.039.99.461 1.733 1.044 2.365 1.186 1.26 2.87 2.108 4.159 3.18.353.309.847.75.864 1.317-.065.813-.607 1.265-1.121 1.698-1.354.269-2.475 1.886-3.83 2.22-.469.137-.973-.05-1.16-.612-.325-.94-.263-2.145-.327-3.128-.015-1.278-.044-2.627-.305-3.873-.193-.839-.53-1.678-1.238-2.053-.815-.426-1.944-.253-2.504.63-.675 1.026-.775 2.636-.846 3.888-.102 1.418.012 3.016-.343 4.38-.142.564-.544.803-1.022.765-.596-.074-1.105-.452-1.61-.803-.665-.522-1.302-1.066-2.045-1.428-.527-.343-1.133-.853-1.378-1.524-.186-.519.04-.945.357-1.288.843-.885 1.949-1.481 2.907-2.187.888-.636 1.955-1.44 2.479-2.533.622-1.21.022-2.898-1.034-3.433-.702-.322-1.509-.125-2.204.129-1.464.563-2.81 1.583-4.239 2.23-.442.17-.965.414-1.374.024-.47-.49-.505-1.214-.532-1.906.476-1.618-.151-3.376.28-5.01.16-.51.448-.972.954-.961.68.102 1.22.484 1.822.832 1.258.753 2.595 1.791 3.982 2.143.705.195 1.431.134 2.001-.438.503-.556.842-1.359.756-2.19-.103-.972-.683-1.663-1.268-2.288-1.19-1.194-2.651-2.023-3.871-3.158-.302-.32-.692-.72-.68-1.24.098-.722.52-1.156 1.007-1.54 1.278-.443 2.478-2.127 3.842-2.196z" fill="#fff" stroke-width="1.333"/><path d="M55.079 78.418c.711.748 1.046 1.89 1.36 2.919.536 2.225.88 4.657.979 6.958-.924.33-1.698 1.075-2.22 2.025-.567 1.116-.708 2.48-.406 3.732l-.05.118c-1.977 1.25-4.14 2.542-6.347 3.075.537-.758 1.271-1.782 1.23-2.829.02-.816-.54-1.575-1.265-1.47.514-.434 1.056-.886 1.122-1.699-.018-.566-.512-1.008-.865-1.316-1.288-1.073-2.973-1.92-4.159-3.18-.583-.632-1.083-1.375-1.044-2.365.085-1.019.663-2.064 1.553-2.284a3.186 3.186 0 0 1 1.667.132c1.581.526 2.998 1.636 4.454 2.301.41.166.866.366 1.293.168.37-.26.524-.715.605-1.192.21-1.405-.236-2.913-.033-4.317.042-.341.175-.616.345-.889.548-.47 1.283-.425 1.781.113z" fill="#ffcb08" stroke-width="1.333"/><path d="M24.968 80.44c.317.857.579 1.798 1.228 2.398.602.558 1.547.463 1.916-.394.027.691.062 1.416.531 1.905.41.391.933.146 1.375-.023 1.428-.647 2.775-1.667 4.239-2.23.695-.254 1.501-.45 2.203-.129 1.057.535 1.656 2.222 1.035 3.433-.524 1.092-1.591 1.896-2.48 2.533-.957.706-2.063 1.302-2.907 2.187-.317.343-.543.769-.357 1.288.246.67.851 1.18 1.378 1.524.744.362 1.38.906 2.046 1.428.18.312.388.544.467.927.113.708-.296 1.44-.857 1.682-.732.314-1.38.136-2.123.059-2.207-.68-4.33-1.797-6.292-3.159.336-1.476.133-3.06-.7-4.254-.503-.77-1.189-1.238-1.946-1.581.15-2.2.405-4.424.914-6.549.09-.364.17-.713.33-1.045z" fill="#b168ea" stroke-width="1.333"/><path d="M41.5 85.5c.707.375 1.044 1.214 1.238 2.053.26 1.246.29 2.595.305 3.873.064.983 0 2.188.326 3.128.187.563.692.75 1.16.612 1.356-.334 2.476-1.951 3.83-2.22.725-.104 1.286.654 1.265 1.47.042 1.047-.692 2.071-1.23 2.83-1.47 1.844-3.265 3.376-5.065 4.736-1.07-1.293-2.75-1.79-4.184-1.096-.585.215-.963.656-1.432 1.043-1.7-1.309-3.39-2.781-4.806-4.507a1.035 1.224 0 0 1-.245-.395c.742.078 1.391.256 2.123-.058.56-.242.97-.974.857-1.682-.079-.383-.287-.615-.467-.927.504.35 1.013.729 1.61.802.477.04.879-.2 1.022-.765.354-1.363.24-2.961.342-4.38.072-1.252.171-2.862.847-3.887.56-.884 1.689-1.056 2.504-.63z" fill="#39b549" stroke-width="1.333"/><path d="M21.01 89.286c1.358-.306 2.794.486 3.464 1.916.617 1.247.568 2.83-.073 4.048-.583 1.058-1.565 1.769-2.643 1.807-.906.065-1.845-.345-2.486-1.11-.702-.783-1.074-1.981-.98-3.116.09-1.747 1.254-3.272 2.718-3.545z" fill="#7d33d3" stroke-width="1.333"/><path d="M60.6 89.643c1.452.55 2.422 2.271 2.269 4.071a4.244 4.244 0 0 1-.81 2.263c-1.02 1.406-2.853 1.717-4.188.774-.827-.56-1.407-1.578-1.57-2.685-.177-1.112.096-2.31.7-3.184.843-1.239 2.322-1.737 3.599-1.239z" fill="#f7951d" stroke-width="1.333"/><path d="M40.804 102.68c.692.05 1.37.39 1.891.932.994.988 1.357 2.627 1.003 4.088-.507 2.125-2.503 3.323-4.261 2.59-1.088-.435-1.91-1.53-2.155-2.854-.27-1.327.125-2.803.967-3.729.679-.744 1.632-1.149 2.555-1.027z" fill="#046939" stroke-width="1.333"/><path d="M32.937 167.14c-.886-.28-1.284-.754-1.413-1.68-.102-.746-.3-1.125-.824-1.569-.535-.45-1.233-.76-2.401-1.066a19.363 17.757 0 0 1-3.61-1.298c-3.483-1.628-6.472-4.039-6.861-5.53-.129-.497.008-1.243.32-1.735.228-.362.279-.392 1.01-.567 1.377-.327 4.396-2.933 6.069-5.238.73-1.003.99-1.572 1.004-2.205.018-.788.075-.891.497-.884.277.006.564.123 1.273.52l1.536.857c1.461.813 1.891.778 3.013-.251 1.053-.966 2.025-1.449 3.744-1.86 1.297-.308 2.729-.446 4.62-.446 4.047 0 8.217.848 11.464 2.33 1.437.658 3.677 1.842 4.477 2.372.521.345.672.488.645.608a8.352 7.66 0 0 0-.038.845c0 .535.065.926.3 1.741.288.998.304 1.123.302 2.35-.006 1.662-.13 2.229-1.013 4.7-.824 2.3-1.106 3.189-1.582 4.98-.652 2.462-1.179 3.006-3.01 3.132-1.633.11-2.914-.478-2.917-1.342a1.324 1.214 0 0 0-.617-1.015c-.24-.128-.51-.172-1.217-.197-2.78-.094-9.7.862-11.032 1.527-.188.091-.53.293-.765.448-.828.542-2.106.746-2.973.473z" fill="#ffd7d7" stroke-width="1.333"/><path d="M41.241 140.42c-2.707-.53-4.598-1.926-5.167-3.805-.196-.655-.274-2.576-.14-3.448.266-1.717.897-3.155 1.746-3.97.58-.557 1.64-1.082 2.72-1.34.94-.227 3.357-.205 4.33.037 1.767.44 3.12 1.33 3.773 2.49 1.206 2.128 1.195 5.344-.024 7.57-.696 1.271-2.014 2.126-3.814 2.463-.838.16-2.626.16-3.424.002z" fill="gold" stroke-width="1.333"/><path d="M39.059 199.39c4.531-1.453 9.088 1.852 9.355 7.053.436 4.296-2.87 8.635-6.914 8.436-3.886.213-7.226-3.484-7.135-7.71-.15-3.59 1.875-6.262 4.694-7.779z" fill="#5eb61c" stroke-width="1.333"/><path d="M15.095 201.79l.547.075.02 2.122 1.25.142.78-2.622c.385 1.515.775 3.03 1.179 4.536-.54.757-1.074 1.523-1.615 2.288 1.686 3.013 3.17 6.084 4.447 9.413 9.459.016 18.944-.25 28.39.183.364 1.515.696 2.988.664 4.594.006 4.993-.02 9.987-.007 14.98H32.86c.228-4.652.137-9.33.078-13.99-3.697-.383-7.454-.058-11.178.058-1.816 5.152-5.24 8.68-6.842 13.932h-.514c1.471-5.285 4.726-8.705 6.777-13.657-1.79-.6-3.242-.69-4.362-2.805.332-.957.664-1.905.99-2.87 1.054-.334 2.102-.683 3.157-1.024-1.061-2.247-2.018-4.653-3.268-6.741-.964-1.582-2.376-2.564-3.366-4.053.007-1.515.476-3.096.762-4.561z" fill="#5eb61c" stroke-width="1.333"/><g stroke-width="2.171"><path d="M40.733 277.717c1.09.623 1.908 1.532 2.793 2.4 1.343.327 2.66.622 3.996.933.68 1.024 1.35 2.047 2.039 3.07-1.343.435-2.62.844-4.054.779-5.51-.057-11.03 0-16.55-.082.238-.671.484-1.351.721-2.03 2.875-.623 5.495-2.015 7.763-3.866 1.04-.819 1.884-1.425 3.292-1.204z" fill="#84c157"/><path d="M55.67 286.807c1.604.671 3.398 1.45 4.405 2.94-.696.515-1.425.786-2.195.81-3.472.107-6.96.017-10.424-.049a17.305 17.305 0 0 1 5.257-3.644c1.09-.598 1.835-.508 2.957-.057z" fill="#8ac160"/><path d="M41.673 287.39c2.49-.065 4.987-.032 7.476-.098-1.032 1.105-2.047 2.227-3.07 3.341-1.5.565-2.99.77-4.578.868.057-1.368.09-2.743.172-4.11z" fill="#949597"/><path d="M46.083 290.633c1.252.213 2.44.622 3.652 1.015.352 3.849.794 7.682 1.711 11.44-.549 4.193-1.834 9.753-5.142 12.644-3.62.294-7.255.065-10.875.507l-1.138.017c2.956-3.644 4.438-8.017 5.347-12.562-.491-.286-.983-.565-1.474-.851l1.736-.082c1.056-3.603 1.343-7.525 1.605-11.26 1.589-.098 3.079-.302 4.577-.867z" fill="#c8c8c8"/><path d="M52.82 292.58c2.325-.025 4.643-.041 6.969-.066a155.665 155.665 0 0 1-.132 3.407c-2.317.008-4.626 0-6.944 0 .041-1.114.074-2.228.107-3.341z" fill="#949293"/><path d="M59.79 292.512c.246 5.06.59 10.007 2.211 14.846 1.016 3.308 2.85 6.019 4.766 8.844-10.448-.082-20.898.286-31.338.033 3.62-.443 7.255-.213 10.875-.508 3.308-2.89 4.593-8.45 5.142-12.644.655-2.366 1.245-4.692 1.27-7.165 2.317 0 4.626.008 6.944 0 .057-1.13.098-2.268.13-3.406z" fill="#d9d9d9"/><path d="M16.364 297.542c3.832 1.589 7.239 3.882 11.177 5.192.099-1.76.131-3.513.213-5.266 3.505 1.72 7.01 3.432 10.408 5.372.492.287.983.565 1.474.852-.909 4.545-2.39 8.917-5.347 12.561-7.992-.082-15.992.016-23.993-.074v-6.33a94.62 94.62 0 0 1 5.904.025c.237-4.11.041-8.213.164-12.332z" fill="#999"/></g><g stroke-width="1.65"><path d="M59.497 357.97c2.596-1.046 6.108.721 7.228 3.166 1.077 3.189 1.691 6.668 1.94 10.029.268 1.443-1.057 2.747-1.843 3.835-3.286 3.813-6.97 7.293-10.546 10.826-1.82-1.917-3.662-4.104-5.827-5.623-3.372-.614-7.12.215-10.514.56.119-1.077.248-2.165.366-3.253 1.875-.636 3.76-1.26 5.645-1.896-.399-2.542-2.165-5.257-.01-7.4 3.403-4.363 8.121-8.704 13.562-10.245z" fill="#c7c7c7"/><path d="M62.397 360.183c2.661.85 2.93 4.621 3.781 6.84-3.565-1.648-6.7-3.64-9.76-6.097 1.886-.301 4.083-1.142 5.98-.743z" fill="#fefffe"/><path d="M12.225 363.245c4.493.01 5.958 1.54 8.597 4.847-1.39-.096-2.769-.193-4.148-.28l.291 2.844c-1.519-1.012-3.027-2.014-4.492-3.091a38.566 38.566 0 0 1-.247-4.32zm10.697.248c.819 13.476-1.756 26.596.259 40.073 1.325.721 2.65 1.432 3.975 2.154-4.514 1.239-8.532 1.314-13.143.657 1.24-1.077 2.489-2.133 3.75-3.2-.044-12.096.753-24.065 3.576-35.86a129.939 129.939 0 0 1 1.583-3.825z" fill="#86c35a"/><path d="M32.327 374.847c-.916 3.425-3.426 4.75-6.13 6.582l.733-2.844c-1.228.043-2.456.086-3.685.107 1.746-3.048 5.645-7.142 9.082-3.845z" fill="#86c35a"/><path d="M37.4 380.114l.679 4.643c-.679.754-1.357 1.508-2.025 2.273a126.726 126.726 0 0 1-1.929-3.318c1.056-1.228 2.166-2.413 3.275-3.598z" fill="#c7c7c7"/><path d="M15.441 382.926l.743 3.07c-.894.054-1.788.118-2.682.183.043 1.002.097 2.004.15 3.006-3.015-1.68-4.944-3.168-7.13-5.828a112.09 112.09 0 0 1 8.919-.431zm12.7 8.025c2.564 1.11 6.13 1.788 7.757 4.277a99.568 99.568 0 0 1-3.254 3.813c-1.25-.97-2.607-1.939-3.695-3.092-.484-1.605-.592-3.35-.807-4.998z" fill="#86c35a"/><path d="M36.253 389.543c.776 1.422 1.54 2.844 2.273 4.287 1.551 4.384 2.488 8.726 5.29 12.571a197.51 197.51 0 0 1-9.092.453c2.477-5.71 1.497-11.279 1.53-17.312zm12.248 1.573c-.237 1.55-.398 3.167-.83 4.685-1.281 1.509-3.317 2.457-4.976 3.512.064-.883.118-1.766.172-2.65l-2.014.442a99.72 99.72 0 0 1 .646-3.501c2.284-.98 4.643-1.713 7.002-2.488z" fill="#86c35a"/></g></svg>