<svg viewBox="0 0 71 54" height="72" width="71pt" xmlns="http://www.w3.org/2000/svg"><path d="M0 0h71v54H0v-2.38c9.77.11 19.54-.01 29.3.09l1.39-.02c12.75.31 25.51-.14 38.27-.04-2.34-3.45-4.58-6.76-5.82-10.8-1.98-5.91-2.4-11.95-2.7-18.13-2.84.03-5.67.05-8.51.08-.04 1.36-.08 2.72-.13 4.08-.03 3.02-.75 5.86-1.55 8.75-1.12-4.59-1.66-9.27-2.09-13.97-1.48-.48-2.93-.98-4.46-1.24 1.25-1.36 2.49-2.73 3.75-4.08-3.04.08-6.09.04-9.13.12-.1 1.67-.14 3.35-.21 5.02-.32 4.56-.67 9.35-1.96 13.75l-2.12.1c-4.15-2.37-8.43-4.46-12.71-6.56-.1 2.14-.14 4.28-.26 6.43-4.81-1.6-8.97-4.4-13.65-6.34-.15 5.03.09 10.04-.2 15.06-2.41-.08-4.8-.1-7.21-.03V0z" fill="#fff"/><path d="M37.17 4.65c1.33.76 2.33 1.87 3.41 2.93 1.64.4 3.25.76 4.88 1.14.83 1.25 1.65 2.5 2.49 3.75-1.64.53-3.2 1.03-4.95.95-6.73-.07-13.47 0-20.21-.1.29-.82.59-1.65.88-2.48 3.51-.76 6.71-2.46 9.48-4.72 1.27-1 2.3-1.74 4.02-1.47z" fill="#84c157"/><path d="M55.41 15.75c1.96.82 4.15 1.77 5.38 3.59-.85.63-1.74.96-2.68.99-4.24.13-8.5.02-12.73-.06 1.92-1.92 3.95-3.33 6.42-4.45 1.33-.73 2.24-.62 3.61-.07z" fill="#8ac160"/><path d="M38.32 16.46c3.04-.08 6.09-.04 9.13-.12-1.26 1.35-2.5 2.72-3.75 4.08-1.83.69-3.65.94-5.59 1.06.07-1.67.11-3.35.21-5.02z" fill="#949597"/><path d="M43.7 20.42c1.53.26 2.98.76 4.46 1.24.43 4.7.97 9.38 2.09 13.97-.67 5.12-2.24 11.91-6.28 15.44-4.42.36-8.86.08-13.28.62l-1.39.02c3.61-4.45 5.42-9.79 6.53-15.34-.6-.35-1.2-.69-1.8-1.04l2.12-.1c1.29-4.4 1.64-9.19 1.96-13.75 1.94-.12 3.76-.37 5.59-1.06z" fill="#c8c8c8"/><path d="M51.93 22.8c2.84-.03 5.67-.05 8.51-.08-.04 1.39-.09 2.78-.16 4.16-2.83.01-5.65 0-8.48 0 .05-1.36.09-2.72.13-4.08z" fill="#949293"/><path d="M60.44 22.72c.3 6.18.72 12.22 2.7 18.13 1.24 4.04 3.48 7.35 5.82 10.8-12.76-.1-25.52.35-38.27.04 4.42-.54 8.86-.26 13.28-.62 4.04-3.53 5.61-10.32 6.28-15.44.8-2.89 1.52-5.73 1.55-8.75 2.83 0 5.65.01 8.48 0 .07-1.38.12-2.77.16-4.16z" fill="#d9d9d9"/><path d="M7.41 28.86c4.68 1.94 8.84 4.74 13.65 6.34.12-2.15.16-4.29.26-6.43 4.28 2.1 8.56 4.19 12.71 6.56.6.35 1.2.69 1.8 1.04-1.11 5.55-2.92 10.89-6.53 15.34-9.76-.1-19.53.02-29.3-.09v-7.73c2.41-.07 4.8-.05 7.21.03.29-5.02.05-10.03.2-15.06z" fill="#999"/></svg>