<svg viewBox="0 0 441.71 460.09" xmlns="http://www.w3.org/2000/svg"><defs><style></style></defs><text x="185.22" y="40.885" font-family="Helvetica" font-size="18.667" font-weight="400" letter-spacing="0" word-spacing="0" style="font-feature-settings:normal;font-variant-caps:normal;font-variant-ligatures:normal;font-variant-numeric:normal;line-height:100%"><tspan x="185.22" y="40.885">We install energy monitors in</tspan> <tspan x="185.22" y="59.552">your house. Your neighbors</tspan> <tspan x="185.22" y="78.218">have energy monitors too!</tspan></text><text x="186.169" y="130.991" font-family="Helvetica" font-size="18.667" font-weight="400" letter-spacing="0" word-spacing="0" style="font-feature-settings:normal;font-variant-caps:normal;font-variant-ligatures:normal;font-variant-numeric:normal;line-height:100%"><tspan x="186.169" y="130.991">We provide apps pointing out</tspan> <tspan x="186.169" y="149.658">where you may be wasting</tspan> <tspan x="186.169" y="168.324">energy.</tspan></text><text x="184.194" y="212.213" font-family="Helvetica" font-size="18.667" font-weight="400" letter-spacing="0" word-spacing="0" style="font-feature-settings:normal;font-variant-caps:normal;font-variant-ligatures:normal;font-variant-numeric:normal;line-height:100%"><tspan x="184.194" y="212.213">You take action! Simple steps</tspan> <tspan x="184.194" y="230.88">that reduce energy waste.</tspan></text><text x="185.515" y="307.483" font-family="Helvetica" font-size="18.667" font-weight="400" letter-spacing="0" word-spacing="0" style="font-feature-settings:normal;font-variant-caps:normal;font-variant-ligatures:normal;font-variant-numeric:normal;line-height:100%"><tspan x="185.515" y="307.483">Win big by saving more energy</tspan> <tspan x="185.515" y="326.15">than your neighbors!</tspan></text><g stroke-width="1.785"><path d="M105.136 0h8.415l.727.05c12.608.907 24.747 5.468 34.557 13.484 9.232 7.56 16.193 17.657 19.668 29.1 4.482 14.39 3.346 30.393-3.216 43.967-7.2 15.277-20.884 26.859-36.957 31.948.906 3.017 1.792 6.035 2.59 9.072-7.56-2.878-14.401-7.21-20.187-12.867 5.059-4.969 8.305-10.895 11.243-17.268a435.715 435.715 0 0 1 2.48 8.724c9.49-2.29 18.154-8.804 24.13-16.402 10.257-13.116 12.856-31.42 6.642-46.866-4.242-10.955-12.847-20.256-23.413-25.374-11.472-5.746-25.374-6.483-37.414-2.052-10.019 3.605-18.693 10.676-24.33 19.709-4.909 7.638-6.99 16.342-7.399 25.334-4.192-.01-8.375 0-12.568-.04.18-18.343 8.475-35.89 22.895-47.283C82.29 5.716 93.384 1.664 105.136 0z" fill="#48a6d8"/><path d="M132.196 46.6c-.18 4.531.1 9.172-.428 13.663-.578 2.898-3.934 2.938-6.284 3.047-1.912-.07-5.637-.14-6.105-2.569-.687-4.64-.288-9.461-.557-14.152l3.147.04c0 3.715-.21 7.44-.13 11.154-.558 3.674 5.916 3.973 7.16 1.543.478-4.162-.02-8.475.09-12.667l3.107-.06zM73.99 47.085c1.723-.906 3.755-.527 5.567-.08 2.012.409.498 1.853.269 3.038-1.643-.279-4.95-1.832-5.358.837.339 2.987 6.055 2.708 5.816 6.871-.239 4.521-4.033 5.428-7.848 5.597-.239-.996-.488-2.002-.727-2.998 2.032-.239 5.637.449 5.518-2.649-.897-1.971-3.864-2.54-5.1-4.312-1.184-2.15-.408-5.178 1.863-6.304z" fill="#031108"/><path d="M83.924 47.25c1.982.498 2.649 2.41.598 3.376-2.6.338-2.68-2.52-.598-3.376z" fill="#206c41"/><path d="M82.55 51.985l3.077.03c-.16 3.675-.21 7.36-.24 11.044-.905-.08-1.812-.169-2.708-.249.11-3.615.05-7.22-.13-10.824zM89.832 51.97c1.972-.966 3.366-.249 5.228.548.787-1.275 1.823-1.424 3.117-.438.02 3.575.29 7.35-.328 10.865-1.036 3.286-4.352 3.396-7.24 2.848-1.434-.02-3.157-1.693-1.544-2.699 1.653.15 3.755 1.195 5.298.369a18.37 18.37 0 0 0 1.524-2.48c-2.171.687-3.834 1.773-6.125.657-3.545-2.081-3.406-7.598.07-9.67zM110.155 53.15c.857 3.008.299 6.603.488 9.74-.916.07-1.832.12-2.758.17-.01-2.71.249-5.558-.23-8.237-.906-1.892-3.366-.657-4.391.488-.299 2.54-.14 5.139-.16 7.698l-2.708-.01c.11-3.644.06-7.25-.439-10.865 1.703-.418 2.819-.07 3.356 1.046 2.092-1.464 5.209-2.858 6.842-.03zM134.317 51.671c1.444.01 2.38.07 3.585.877 2.3-1.235 4.382-1.614 6.444.298 3.216 2.948 2.29 8.724-1.882 10.208-2.142.797-3.327-.438-5.189-1.264.01 1.613.01 3.236.01 4.86-.896-.02-1.802-.04-2.699-.05 0-4.99.14-9.959-.269-14.929z" fill="#031108"/><path d="M91.08 54.3c.965-.856 2.808-.677 3.564.449 1.504 1.882.598 5.158-2.021 5.327-2.868-.209-3.565-4.073-1.544-5.776zM138.829 54.226c2.041-1.404 4.371.358 4.62 2.56.28 2.29-1.424 4.78-3.963 3.983-2.56-1.046-2.759-4.89-.657-6.543z" fill="#fff"/><path d="M68.717 83.437c14.65-.438 29.219 4.8 40.392 14.25-2.569 3.267-5.337 6.355-7.956 9.581-3.456-2.42-6.742-4.86-10.597-6.632-10.626-5.099-23.084-5.955-34.357-2.57-12.797 3.835-23.761 13.196-29.458 25.296-6.552 13.733-6.124 30.453 1.345 43.738 6.015 10.845 16.073 18.922 27.864 22.676 1.076-2.938 1.743-5.865 3.167-8.624 2.55 6.702 5.926 11.84 10.806 17.059-5.677 5.557-12.498 9.928-19.937 12.727a87.39 87.39 0 0 1 2.39-8.963c-2.241-.866-4.502-1.703-6.712-2.639-14.4-6.254-26.032-18.323-31.858-32.903-5.278-13.115-5.686-28.033-1.275-41.458 4.253-13.076 13.146-24.558 24.747-31.938 9.322-6.054 20.336-9.41 31.44-9.6z" fill="#5be0e6"/><path d="M31.596 131.567l2.868.03c1.803 4.193 3.526 8.495 5.607 12.548 1.693-4.183 3.296-8.405 4.98-12.598.945.03 1.892.05 2.838.07-.1 5.467-.06 10.925 0 16.392-1.026-.01-2.042-.03-3.068-.04.03-3.157.1-6.314.11-9.47-1.584 3.156-2.58 6.592-4.252 9.689l-1.624-.01c-1.723-3.177-2.848-6.652-4.53-9.869.029 3.217.079 6.434.099 9.65l-3.078.01c.3-5.477.19-10.925.05-16.402z" fill="#031108"/><path d="M78.36 133.89c-.399 2.52-2.54 1.743-3.954.488 1.026-1.972 2.798-3.117 3.954-.488z" fill="#206c41"/><path d="M80.921 132.979c.887.09 1.783.2 2.67.329-.05 1.205-.09 2.42-.14 3.624 1.036 0 2.081-.01 3.117-.01.04.807.08 1.624.13 2.44-1.096-.04-2.191-.07-3.287-.1-.14 2.291-.06 4.373.319 6.643l3.525-.12c-.478 2.889-3.734 2.819-5.736 1.734-2.121-2.47 1.205-7.718-2.58-9.202.588-.598 1.176-1.205 1.773-1.813.06-1.175.13-2.35.21-3.525zM53.174 136.848c3.854-1.623 7.987 1.484 7.818 5.577.04 4.262-4.511 7.28-8.335 5.148-4.153-2.32-3.914-8.843.517-10.725zM69.718 136.52c1.603.03 3.017 1.214 3.047 2.877.24 2.809.2 5.657.09 8.465l-2.689.219c-.01-2.61.25-5.308-.11-7.897-.368-1.115-1.155-1.524-2.36-1.235-3.864.717-1.563 6.214-2.5 9.053l-2.509.05c.12-3.636.08-7.23-.448-10.836 1.205-.378 2.34-.11 3.406.827 1.255-.588 2.659-1.554 4.073-1.524zM91.774 136.676c2.37-.787 4.93.19 6.334 2.201 2.011 2.938 1.025 7.25-2.221 8.823-2.848 1.424-6.274.05-7.52-2.828-1.443-3.137.06-7.12 3.407-8.196z" fill="#031108"/><path d="M103.926 137.191c1.165-.179 2.32-.428 3.466-.677.09.936.169 1.872.249 2.819-1.355.298-2.71.607-4.064.896.02 2.689.04 5.338-.05 8.007-.935-.05-1.882-.09-2.828-.13-.03-3.605-.219-7.22-.209-10.825 1.116-1.215 2.111-.289 3.436-.09zM74.782 137.042l3.416-.15c-.22 3.745-.28 7.47-.21 11.224-.965-.02-1.931-.03-2.897-.04.07-3.694 0-7.349-.31-11.033z" fill="#206c41"/><path d="M53.144 139.776c1.514-1.325 3.705-1.225 4.77.567 1.474 2.38-.1 5.886-3.176 5.418-2.66-.657-3.297-4.033-1.594-5.985zM91.737 139.432c1.424-.916 3.206-.727 4.192.697 1.524 2.141.468 5.408-2.31 5.697-3.336-.04-4.362-4.492-1.882-6.394z" fill="#fff"/><path d="M118.505 160.644c15.297.837 30.145 7.628 40.632 18.822 11.472 12.1 17.617 28.95 16.441 45.61-.876 13.774-6.622 26.97-15.953 37.117 2.31 2.19 4.66 4.322 6.881 6.592-7.947 1.395-15.954.966-23.811-.786 1.573-7.22 1.802-13.305.767-20.625 2.34 2.042 4.62 4.143 6.881 6.264 9.282-10.068 13.952-23.92 12.479-37.554-1.544-15.356-10.845-29.428-24.37-36.867-12.318-6.901-27.565-7.956-40.7-2.758-7.927 3.037-14.72 8.236-20.117 14.749-3.336-2.56-6.592-5.209-9.868-7.828 12.08-15.207 31.34-23.91 50.739-22.735z" fill="#46b38d"/><path d="M124.906 203.606c3.058-.956 6.434.239 8.336 2.788 2.967 3.844 2.23 9.91-1.862 12.668-3.486 2.43-8.425 1.404-10.726-2.142-3.147-4.6-1.225-11.621 4.252-13.315zM143.228 204.368c-2.35 1.344-3.197 1.533-3.247 4.391l2.59.3c.08.756.159 1.513.229 2.26l-2.63.14c-.209 2.808.36 5.835-.189 8.583l-2.44.05c-.01-2.709-.01-5.417.03-8.126-.707-.598-1.424-1.185-2.14-1.783 2.469-1.414 1.762-3.107 2.678-5.328 1.026-1.414 4.352-3.067 5.119-.488z" fill="#031108"/><path d="M146.753 203.539c1.365-.877 2.61-.608 3.745.806-1.046.568-2.082 1.126-3.117 1.693-.12.896-.24 1.803-.369 2.699.986.2 1.962.408 2.948.607-.05.658-.11 1.325-.17 1.982-.886.03-1.762.05-2.648.07.03 2.898.09 5.796.139 8.704l-2.42-.07c-.597-2.61-.2-5.527-.358-8.216-1.405-.727-1.195-1.394-1.584-2.699l1.335-.13c.378-2.24.04-4.401 2.5-5.447zM67.193 203.598c3.825.25 7.58.23 11.403.02l-.01 2.54c-1.444-.01-2.878-.03-4.312-.05-.159 4.62-.05 9.241.11 13.862l-3.227.12c.08-4.64.22-9.271.1-13.913h-4.65c.198-.866.388-1.723.587-2.579z" fill="#031108"/><path d="M124.906 206.578c3.516-1.693 6.872.996 7.28 4.562.399 3.754-2.728 7.578-6.722 6.184-4.402-1.763-4.63-8.425-.558-10.746z" fill="#fff"/><path d="M80.623 209.088l2.36-.13c-.14 2.52-.647 5.378 0 7.848 1.285 2.082 3.894 1.026 4.87-.727.249-2.27.159-4.59.169-6.871.916-.06 1.842-.12 2.759-.17-.1 3.735-.1 7.47-.06 11.214a11.463 11.463 0 0 1-3.675-1.245c-2.2 1.085-4.232 1.802-6.264-.08-1.195-2.111-1.185-7.708-.16-9.839zM96.016 209.723a70.43 70.43 0 0 1 3.844-1.046l-.268 2.858c-1.225.339-3.785-.249-3.665 1.703-.19 2.27-.06 4.581-.01 6.852h-2.7c.07-3.595.1-7.14-.507-10.705 1.444-.747 2.55-.628 3.306.338zM104.255 209.842c2.37-.647 4.62-2.52 6.562.13 1.156 3.017.419 6.911.598 10.128-.916-.02-1.832-.05-2.749-.07-.04-2.808.359-5.905-.378-8.644-1.872-1.045-2.818.1-4.412.936.04 2.59.03 5.179 0 7.768l-2.679-.01c.07-3.585.11-7.12-.528-10.656 1.554-.348 2.191-.448 3.586.418z" fill="#031108"/><path d="M67.694 232.01c4.103-.169 8.046-.458 12.02.678 14.57 1.105 28.81 7.747 39.815 17.228 2.977 2.062 5.357 4.68 7.489 7.589 2.868 4.252 6.234 7.638 8.465 12.359 1.712 3.555 3.943 7.18 4.71 11.004 1.145 5.109 3.565 9.839 3.207 14.908-.17 2.5.05 4.6.776 6.991 1.046 3.027-1.135 5.617-.796 8.943.418 4.87-1.365 8.823-2.42 13.524-1.384 5.796-4.312 10.695-6.852 15.993-1.304 2.57-3.396 4.591-4.88 7.09-2.34 3.984-6.393 6.932-9.49 10.427-9.63 8.804-22.288 14.52-35.095 16.721-4.64 1.365-9.182.737-13.932.847-11.174.498-22.118-2.898-32.186-7.539-3.645-2.27-7.26-4.7-10.785-7.16-2.241-2.23-4.521-3.994-7.071-5.836-2.47-3.854-6.005-6.642-8.266-10.606-2.121-3.465-4.59-6.184-5.985-10.018-2.091-5.248-4.452-10.845-5.238-16.471a12.664 12.664 0 0 0-1.175-3.825v-20.455c1.563-2.52.836-5.816 1.912-8.594 2.2-8.625 6.313-16.322 11.412-23.552 2.809-4.94 6.941-7.968 10.776-12.1 8.953-7.509 19.19-13.554 30.733-15.964 4.252-1.663 8.584-.826 12.856-2.18z" fill="#ffc600"/><path d="M73.042 238.202c-.27 4.103-1.056 8.296-1.783 12.339-2.041 0-3.456.886-4.242-1.564l.776 1.096c.996.13 2.012.08 3.058-.15.637-3.604.896-7.21 1.902-10.755-.717-1.095-1.265-2.111-2.66-2.39 1.525-.667 2.381-.03 2.949 1.424z" fill="#5ab70f"/><path d="M66.282 237.239l.877 2.031.268.638.359.796c-.837 2.191 1.773 2.898.747.22.17-1.226.338-2.45.518-3.665l1.045-.478c1.395.278 1.942 1.294 2.66 2.39-1.007 3.545-1.265 7.15-1.903 10.755a8.845 8.845 0 0 1-3.057.15l-.777-1.096-.876-2.53c-.27-.886-.598-1.762-.887-2.639-.229 2.31-.458 4.621-.697 6.932-.966.13-1.942.249-2.908.368-1.523-.797-1.762-2.2-2.34-3.675-.926-2.947-1.583-5.985-2.33-8.972a15.08 15.08 0 0 0 3.376-.468c.558 2.091 1.155 4.172 1.862 6.224a163.3 163.3 0 0 0 .717-6.274 22.724 22.724 0 0 1 3.346-.707zM85.052 241.055c-.508 2.022-.837 3.864-.359 5.926a60.904 60.904 0 0 1-.896 2.001c-2.51 1.942-3.456 2.142-6.563 1.494-3.884-3.436-3.475-10.227.946-12.966 2.898-.876 5.896.568 6.872 3.545z" fill="#fff"/><path d="M67.156 239.27l.269.638z" fill="#46b38d"/><path d="M79.077 240.316c.906.04 1.802.09 2.708.14-3.983.975-2.957 3.425-3.465 6.652-.498-2.38-.548-4.641.757-6.792z" fill="#5ab70f"/><path d="M89.66 239.845c1.195.07 2.38.18 3.575.3.02 2.39.25 4.69.658 7.04a146.349 146.349 0 0 0 1.752-5.736l2.64.757c-.31 2.42-.957 4.75-1.674 7.08l-.12.319c-1.403 2.2-1.284 6.005-4.869 4.67-.438-2.838-.677-5.696-1.185-8.524-.956 2.32-1.872 4.61-2.58 7.02-1.234-.387-2.03-.975-2.41-1.772 1.007-3.664 2.56-7.728 4.213-11.153zM48.97 240.615c1.055 3.296 2.13 6.543 3.853 9.56l.12.249c.338.866.677 1.743 1.015 2.61-.976.537-1.942 1.075-2.898 1.622-1.683-4.192-3.605-8.176-4.69-12.598a82.316 82.316 0 0 1 2.6-1.444z" fill="#fff"/><path d="M48.97 240.615c1.921 2.957 2.758 6.254 3.853 9.56-1.723-3.017-2.798-6.264-3.854-9.56z" fill="#5ab70f"/><path d="M67.783 240.704l.747.22c1.026 2.678-1.583 1.971-.747-.22z" fill="#83d311"/><path d="M81.788 240.458c.338 2.898.488 4.92-1.364 7.37a74.414 74.414 0 0 1-2.102-.718c.508-3.226-.518-5.676 3.466-6.652z" fill="#ffc600"/><path d="M85.052 241.055c1.245 2.161 1.474 4.024-.359 5.926-.478-2.062-.15-3.904.359-5.926z" fill="#46b38d"/><path d="M98.287 242.206c.458 2.698-.349 4.8-1.673 7.08.717-2.33 1.364-4.66 1.673-7.08zM65.252 243.811c.288.877.617 1.753.886 2.64-.488 1.563-.717 3.724-1.823 4.959a20.26 20.26 0 0 1-2.668-.299c.965-.12 1.941-.239 2.907-.368.24-2.31.468-4.621.698-6.932zM83.797 248.98c-.886 2.848-4.451 3.077-6.563 1.494 3.107.647 4.053.448 6.563-1.494zM96.494 249.607c-1.035 2.749-.478 5.936-4.51 5.398l-.36-.727c3.586 1.334 3.466-2.47 4.87-4.67zM52.943 250.421c.677 1.036 1.264 2.022 1.633 3.217-1.135.468-2.32.767-3.516 1.016.956-.548 1.922-1.086 2.898-1.623l-1.015-2.61z" fill="#5ab70f"/><path d="M77.695 254.813c8.156 1.195 16.083 4.452 22.954 8.993 3.745 2.808 6.792 6.553 10.208 9.75 3.814 3.534 3.496 8.922 1.843 13.434-1.315 3.376-3.815 5.318-6.274 7.807 4.89-1.683 8.664-4.083 11.79-8.255 1.614 4.451 3.506 9.42 3.337 14.21-.08 2.998.04 5.986-.03 8.984-1.962 14.6-10.267 29.07-23.144 36.608-5.328 3.366-11.383 6.204-17.687 6.95-3.067.31-5.865 1.365-8.983 1.206-3.117.189-5.915-.946-8.992-1.165-2.848-.28-5.597-1.723-8.356-2.47-4.82-1.325-8.485-4.312-12.687-7.16-7.09-6.394-13.982-13.684-16.602-23.125-1.035-2.957-2.17-5.726-2.3-8.903-.837-3.983-1.723-9.112-.01-12.956.19-5.647 2.031-11.343 4.75-16.273 3.287-7.37 8.894-13.773 15.545-18.314 5.786-4.58 12.897-7.549 20.176-8.694 4.611-1.225 9.71-.418 14.46-.627z" fill="#fff"/><path d="M70.681 263.798c-.776.897-1.543 1.803-2.32 2.7 5.388-.01 10.038-1.564 15.297-.887 5.208.577 11.761 1.215 16.053 4.441-1.763.867-3.804 1.335-4.92 3.078-1.832 2.818-1.275 6.921-1.155 10.107.976-.906 1.942-1.822 2.898-2.738-.936 4.143-.986 7.568-.279 11.75-2.29-2.4-2.63-5.307-3.914-8.205-1.703-2.988-5.975-4.522-8.903-6.095-1.683-.598-3.764-2.33-5.288-.588-3.276 3.466-5.168 8.545-6.802 12.957-.547-.608-1.105-1.215-1.653-1.823-5.119.877-8.246 2.49-12.27 5.687-.457-.1-.915-.19-1.383-.289-.926-1.504-1.634-3.247-3.337-4.003-1.374-.996-3.575.199-4.292 1.553-.886 2.46-.15 4.561.757 6.852 1.155.13 2.32.259 3.476.398 1.414 1.135 3.694 2.32 4.332 4.053-.628 2.948-5.318 2.998-7.26 5.02.528 7.2 3.824 13.961 10.018 17.935 3.456 1.842 6.762 3.684 10.746 2.3.657.906 1.035 2.052 1.732 2.888-.488 1.952-.497 4.123-1.215 5.985-.995 1.175-2.868.19-4.063-.15a33.74 33.74 0 0 0 1.972-6.273c-4.372 3.147-8.505 5.856-14.131 5.866-6.842.01-12.33-4.223-15.655-9.929-4.79-8.296-4.82-18.344-2.68-27.436 2.48-11.8 9.84-21.939 19.74-28.671 4.47-2.968 9.4-4.86 14.499-6.483z" fill="#83d311"/><path d="M78.15 277.362c1.524-1.743 3.606-.01 5.289.588 2.927 1.573 7.2 3.107 8.903 6.094 1.284 2.898 1.623 5.806 3.913 8.207 2.888 7.33 7.25 15.505 7.2 23.443.19 7.608-3.993 15.445-10.914 18.871-6.573 3.367-15.496 2.112-20.325-3.674-.698-.837-1.076-1.982-1.733-2.888-3.984 1.384-7.29-.458-10.746-2.3-6.194-3.974-9.49-10.736-10.018-17.936 1.942-2.022 6.632-2.071 7.26-5.02-.638-1.732-2.918-2.917-4.332-4.052 3.505-.14 3.226-1.893 3.396-4.8.468.099.926.189 1.384.288 4.023-3.196 7.15-4.81 12.27-5.686.547.607 1.105 1.215 1.652 1.822 1.634-4.411 3.526-9.49 6.802-12.956zM54.78 282.53c1.892-.159 3.625 1.973.976 2.38-2.759.37-4.96 1.704-7.32 3.068.528-2.978 3.147-5.746 6.344-5.447z" fill="#5ab70f"/><path d="M52.704 289.888c1.703.756 2.41 2.5 3.336 4.003-.17 2.908.11 4.66-3.396 4.8-1.155-.14-2.32-.269-3.476-.398-.906-2.29-1.643-4.392-.757-6.852.717-1.354 2.918-2.55 4.293-1.553zM88.368 290.082c2.848 2.57 1.574 5.437.23 8.385-1.863 0-3.755.07-5.608-.1-2.788-3.345.688-9.958 5.378-8.285z" fill="#031108"/><path d="M16.188 292.091c.866.18 1.723.378 2.589.598 0 3.455.01 6.97-.498 10.396-3.764.717-2.56-1.503-3.077-3.963-1.066-.13-2.131-.25-3.197-.379-2.041-.627-4.043-.886-6.164-.468a9.021 9.021 0 0 1-.01-3.505c3.206.269 6.413.607 9.61 1.075 0-1.394.249-2.649.747-3.754zM50.986 291.95c.776.019 1.543.049 2.31.099-.01.796-.03 1.603-.04 2.41-.747.05-1.503.09-2.25.14-.02-.887-.03-1.764-.02-2.65zM84.955 292.069c.786-.05 1.583-.09 2.38-.12-.07.827-.14 1.643-.2 2.47-.766.06-1.543.13-2.31.19.03-.847.07-1.694.13-2.54z" fill="#fff"/><path d="M137.604 293.077a28.011 28.011 0 0 1-3.147.518l-.458 2.28c-.419.22-.847.438-1.285.638l1.006-.777c-2.091-1.932-6.802-.966-9.58-1.354.308 1.613.597 3.236.826 4.87-.637-1.734-1.115-3.516-1.524-5.309 3.127-.08 6.215.11 9.331.438 1.863-1.693 2.38-1.762 4.83-1.304z" fill="#5ab70f"/><path d="M134.46 293.592a28.008 28.008 0 0 0 3.146-.518c.488 1.285 1.145 2.66-.199 3.675-1.364 1.096-2.23-.199-3.406-.876zM124.137 294.384c2.779.388 7.49-.578 9.58 1.354l-1.005.777c-2.5 1.106-5.169 1.832-7.748 2.739a99.297 99.297 0 0 0-.826-4.87z" fill="#fff"/><path d="M70.711 296.505c2.809.26 2.958 1.723 3.008 4.143l-6.184.15c-.389-2.39.378-4.552 3.176-4.293z" fill="#83d311"/><path d="M5.843 298.275c2.121-.418 4.123-.159 6.164.468-1.434.707-5.477 1.395-6.164-.468z" fill="#5ab70f"/><path d="M86.105 300.195c1.763-.508 5.686.747 5.059 3.097-1.285 3.575-7.52 2.669-8.505-.558.13-1.503 2.19-2.26 3.446-2.54z" fill="#83d311"/><path d="M135.67 299.956c.905.06 1.822.14 2.728.239l-2.31.548c-.19 1.922.05 3.933.199 5.865-.837.05-1.683.09-2.52.12l-.348-.628 2.33-.01c-.07-2.031-.17-4.103-.08-6.134z" fill="#46b38d"/><path d="M128.155 300.807c.17 1.783.399 3.546.817 5.288.349.23.707.449 1.076.648.647-2.46-.956-5.1 2.698-4.96.21 1.444.438 2.888.678 4.322l.348.628c.837-.03 1.683-.07 2.52-.12-.15-1.932-.389-3.943-.2-5.865l2.31-.548c0 2.54 1.305 7.07-.288 9.162-4.222.558-7.897-1.115-11.96.886-.618-3.067-.498-6.084-.309-9.192.767-.08 1.544-.169 2.31-.249z" fill="#fff"/><path d="M130.008 301.898c.916-.05 1.832-.09 2.738-.12-3.654-.14-2.051 2.5-2.698 4.96-.369-.2-.727-.419-1.076-.648.339-1.404.618-2.818 1.036-4.192z" fill="#5ab70f"/><path d="M11.878 304.617c2.042.07 4.083.229 6.115.308l.199.697-.09 1.883c-1.583.189-3.167.328-4.75.468.1 1.075.2 2.14.299 3.216 1.314.06 2.629.12 3.933.23l1.245.248v2.211c-3.505 1.295-8.594 1.245-12.398 1.345l-1.275-2.47c1.842-.438 3.675-.906 5.487-1.414l.18-.05a12.827 12.827 0 0 0-.827-2.888c-1.444-.09-2.848.199-4.213.866a6.715 6.715 0 0 1-.756-3.187c2.33-.298 4.58-.896 6.851-1.464z" fill="#fff"/><path d="M18.19 305.625c.228.747.408 1.504.547 2.28-1.613.28-3.227.498-4.83.797-.01 2.769 1.763 2.21 3.675 2.719-1.305-.11-2.62-.17-3.934-.23l-.299-3.216c1.584-.14 3.167-.279 4.75-.468zM5.783 309.27c1.365-.668 2.769-.956 4.213-.867.388.917.657 1.882.826 2.888l-.179.05c-1.314-1.494-2.878-1.364-4.69-1.683z" fill="#5ab70f"/><path d="M83.91 308.74c-1.186 3.007-4.482 3.385-3.357 6.483-6.214 4.49-14.948 3.983-21.152-.22-.956-1.752-1.733-3.575-2.818-5.248 8.962.966 18.483.847 27.326-1.016z" fill="#fff"/><path d="M83.91 308.74l2.35-.489c-1.305 2.36-2.301 7.27-5.707 6.971-1.125-3.097 2.171-3.475 3.356-6.483zM52.435 309.337c1.374.19 2.758.329 4.143.418 1.085 1.673 1.862 3.496 2.818 5.248-3.396-.517-5.398-2.808-6.961-5.666z" fill="#206c41"/><path d="M124.518 310.793c4.471 1.136 9.162 1.026 13.554 2.36-4.382-.02-8.684-.746-12.916-1.822-.14 1.046-.269 2.082-.408 3.127-.07-1.225-.15-2.45-.23-3.665z" fill="#5ab70f"/><path d="M125.153 311.331c4.232 1.076 8.535 1.803 12.916 1.823-.14 1.145-.259 2.29-.378 3.435-4.342-.527-8.664-1.185-12.946-2.13.139-1.046.268-2.082.408-3.128z" fill="#fff"/><path d="M18.824 311.667c.289 4.601 2.789 8.375 3.287 12.937l-.777-.05c-.379-2.829-.956-7.768-3.496-9.45a91.35 91.35 0 0 0-1.583 1.304l-.697-1.215c-2.819.259-5.637.538-8.465.777-.229-.25-.458-.498-.667-.747 3.804-.1 8.893-.05 12.398-1.345z" fill="#5ab70f"/><path d="M17.838 315.103c2.54 1.683 3.117 6.623 3.496 9.45l-2.052-.159a210.797 210.797 0 0 1-1.972-4.302l-.06-.03-1.244-.279c.289 1.464.558 2.928.787 4.402l-1.922 1.016c-.737-1.235-1.385-2.52-2.072-3.794l-.259-.389c-.816.26-1.623.518-2.42.787.757 1.822 1.823 3.814 1.992 5.806l-2.19.856c-.957-2.56-3.078-5.816-2.73-8.594 2.759-1.504 6.165-1.883 9.133-2.888l-.07-.578c.528-.448 1.056-.876 1.584-1.305z" fill="#fff"/><path d="M123.689 316.866c3.585-.518 9.48 1.603 12.419 3.694-3.635-1.304-7.31-2.649-11.045-3.664-.557.597-1.115 1.205-1.663 1.812z" fill="#5ab70f"/><path d="M125.063 316.896c3.735 1.015 7.41 2.36 11.045 3.664.418.857.518 1.863.308 3.008-2.37.348-4.74.627-7.11.856l-1.434.399c.239 1.364 4.55 1.812 5.766 1.613.637 1.016.827 2.002.568 2.948-1.345.478-2.66-.07-3.964-.438-2.679-.946-5.457-1.803-7.987-3.088-.707-.836-.13-2.599-.209-3.674 2.181-.13 4.352-.309 6.513-.588-1.225-.986-4.89-1.284-5.158-2.888.547-.607 1.105-1.215 1.663-1.812z" fill="#fff"/><path d="M16.008 319.786l1.245.279.06.03c-.12 1.633-.12 3.226.07 4.86-.837.04-1.673.12-2.51.249l1.922-1.016a110.074 110.074 0 0 0-.787-4.402zM12.543 321.018l.259.389-1.763.986c.946 2.001 1.534 3.814 1.912 5.995-1.006.02-2.022.05-3.027.08l2.19-.857c-.169-1.992-1.234-3.983-1.991-5.806.797-.269 1.603-.528 2.42-.787zM127.872 324.828l1.434-.399c1.304.28 3.734.668 4.332 2.012-1.215.2-5.527-.249-5.766-1.613zM122.255 328.323c-.936.408-1.842.548-2.709.389-.08-1.425 2.978-2.062 2.709-.389z" fill="#5ab70f"/><path d="M119.551 328.712c.867.159 1.773.02 2.709-.389-.04 1.773-.926 3.466-1.494 5.159l-.06.767c.976.607 1.554.308 1.723-.887l.17-.727a15.395 15.395 0 0 0 2.868-1.424c.647 1.902-.508 3.625-.996 5.448l1.006.507c.577.26 1.055.3 1.424.11 1.085-2.012 1.713-4.033 3.605-5.487 2.34 2.888-1.564 7.13-2.918 9.72-4.213-1.644-6.403-4.89-10.905-5.13l-.239-1.812c1.494-1.494 2.57-3.197 2.968-5.298zM24.77 330.571c2.44 2.67 4.999 5.159 2.14 8.724l-1.722.359-.887.219c-1.025 1.304-1.424 3.276-3.346 3.455-1.035.03-2.071-.03-3.107-.169-1.533-1.235-3.585-3.456-3.177-5.587 1.863-2.768 6.932-3.366 7.11-6.901 1.186-1.345 1.654-.707 2.989-.1z" fill="#fff"/><path d="M119.41 329.264c-.4 2.101-1.475 3.804-2.968 5.298-.528-1.972.826-4.96 2.967-5.298zM24.77 330.571c3.097 1.703 5.078 4.89 3.555 8.416l-1.414.308c2.858-3.565.298-6.055-2.141-8.723zM125.467 331.206a15.396 15.396 0 0 1-2.869 1.424c-.149-1.862 2.042-3.635 2.869-1.424zM130.5 331.789c-1.891 1.454-2.519 3.475-3.604 5.487-.369.19-.847.15-1.424-.11 2.3-1.145 2.32-5.935 5.029-5.377zM120.761 333.477l1.663-.12c-.17 1.195-.747 1.494-1.723.887zM22.977 334.88l.846-.029.03 1.583-.846-.01-.498-.766z" fill="#5ab70f"/><path d="M23.828 334.851l.847-.01.498.787-.478.797-.837.01z" fill="#ffc600"/><path d="M116.34 336.756c.607.856.647 1.633.139 2.33-.837-1.574-1.852-.966-3.277-.747.339-1.763 1.454-2.928 3.137-1.583z" fill="#5ab70f"/><path d="M18.914 337.958c1.792-1.115 2.967 1.613.886 2.002-1.205-.399-1.494-1.066-.886-2.002z" fill="#ffc600"/><path d="M116.481 339.086a91.68 91.68 0 0 1-2.1 2.669c-1.664 1.424.268 3.396 1.334 1.294l.876-1.414 1.872-.458c.24.658.478 1.315.717 1.962-.697.946-1.384 1.882-2.061 2.828l-.399.538c.956.339 2.271 1.623 3.048.339.986-1.106 1.892-2.33 2.808-3.516.747.419 1.504.827 2.26 1.235-1.523 1.992-3.704 6.553-6.253 6.951-3.486-2.15-5.1-5.766-9.312-6.95l.13-1.853c1.155-.269 1.932-1.036 2.32-2.31.508-.688.996-1.365 1.484-2.062 1.424-.219 2.44-.827 3.276.747z" fill="#fff"/><path d="M24.306 339.87l.887-.219c-.578 1.016-.986 2.32-1.833 3.147-1.772 1.225-3.565.647-5.507.359 1.036.139 2.072.199 3.107.169 1.922-.18 2.32-2.151 3.347-3.456z" fill="#5ab70f"/><path d="M30.909 339.317l1.036.1c.358.608.717 1.225 1.065 1.842-1.225 1.046-2.42 2.122-3.625 3.197l-.209.19c-2.051 1.593-3.794 3.346-5.407 5.377a27.087 27.087 0 0 0-2.779-1.753c2.908-3.326 6.205-6.542 9.92-8.953z" fill="#fff"/><path d="M31.94 339.415c1.075.388 1.623 1.035 1.673 1.932-1.106 1.503-2.63 2.25-4.233 3.107 1.205-1.076 2.4-2.151 3.625-3.197-.348-.617-.707-1.235-1.065-1.842zM111.724 340.4c-.389 1.275-1.166 2.042-2.32 2.31-.03-1.543.746-2.31 2.32-2.31z" fill="#5ab70f"/><path d="M118.46 341.177l-1.872.458c.588-1.712 1.205-1.862 1.873-.458z" fill="#83d311"/><path d="M114.383 341.752l1.334 1.295c-1.066 2.101-2.997.13-1.334-1.295zM122.068 343.157c.896-1.584 2.101.856 2.769 1.404-.757-.409-1.514-.817-2.26-1.235-.917 1.185-1.823 2.41-2.81 3.515-.776 1.285-2.09 0-3.047-.338l.399-.538c2.27 1.673 3.445-1.583 4.95-2.808zM29.176 344.643c-1.603 2.071-3.027 4.113-5.407 5.378 1.613-2.032 3.356-3.785 5.407-5.378zM38.841 345.621c.837.817 1.554 1.793 2.27 2.72-.746 1.025-1.503 2.05-2.25 3.096.11.996.428 2.131.19 3.127-1.395.797-2.909 1.285-4.422 1.823 1.673-.638 3.097-1.673 4.421-2.868a73.29 73.29 0 0 1-3.376-2.092l-.03-.209a16.494 16.494 0 0 1 3.546-.607c.308-.936.627-1.863.956-2.789-2.201-2.609-2.848-2.798-6.314-2.51 1.733-.238 3.436-.726 5.01.31z" fill="#5ab70f"/><path d="M33.837 345.308c3.466-.29 4.113-.1 6.314 2.51-.329.925-.648 1.852-.956 2.788-1.235.08-2.41.278-3.546.607-.11-1.115-.209-2.24-.298-3.356-1.803.886-3.526 1.613-4.75 3.286-1.425 1.793-.14 3.506 2.02 3.297a16.433 16.433 0 0 0-.905-2.112c1.414-2.29 1.762-1.254 3.963-.906a73.245 73.245 0 0 0 3.376 2.092c-1.324 1.195-2.748 2.23-4.421 2.868-3.376 1.971-7.947-1.026-7.3-4.88.757-3.127 3.685-5.079 6.503-6.194z" fill="#fff"/><path d="M107.459 345.718c1.324.488 1.683 1.554 2.31 2.69a50.026 50.026 0 0 0-2.26-1.873c-2.36-.787-4.263.827-6.175 1.942 1.514-1.892 3.585-3.386 6.125-2.759z" fill="#5ab70f"/><path d="M107.511 346.533a50.023 50.023 0 0 1 2.26 1.872 76.67 76.67 0 0 1-.388 3.037l-.348.867c2.14.288 4.282.607 6.413.986.1 1.075.19 2.16.279 3.236-2.131-.249-4.252-.548-6.364-.976-2.818-.816-1.503 1.823.349 1.902l.11 2.052c-.717.428-1.434.836-2.152 1.245-1.872-2.201-3.555-4.542-5.228-6.902a31.46 31.46 0 0 1-3.117-1.424l.638-2.051.258-.518 1.116-1.384c1.912-1.116 3.814-2.73 6.174-1.942z" fill="#fff"/><path d="M35.346 347.862c.09 1.115.189 2.24.298 3.356l.03.21c-2.2-.35-2.55-1.385-3.963.905l-1.116-1.185c1.225-1.673 2.948-2.4 4.75-3.286z" fill="#ffc600"/><path d="M100.221 349.864l-.259.518z" fill="#83d311"/><path d="M104.68 349.535c.29.857.956 1.454 1.992 1.783-1.105 3.047-4.481-.438-1.992-1.783z" fill="#5ab70f"/><path d="M104.68 349.535c1.763-.597 2.42-.01 1.992 1.783-1.036-.329-1.703-.926-1.992-1.783z" fill="#ffc600"/><path d="M30.595 351.148l1.116 1.186c.348.687.657 1.384.906 2.11-2.161.21-3.446-1.503-2.022-3.296z" fill="#206c41"/><path d="M51.314 355.197c-2.091-2.31-3.137-3.924-6.672-3.267 2.48-1.016 6.822.22 6.672 3.267zM97.39 351.671l.05.897c-2.14.258-4.043.388-5.766 1.852 1.205-2.25 3.526-2.062 5.717-2.749zM109.378 351.447c2.012.23 3.994.538 5.956 1.016l.11.836a155.77 155.77 0 0 0-6.414-.985z" fill="#5ab70f"/><path d="M44.637 351.933c3.535-.658 4.581.956 6.672 3.266a62.574 62.574 0 0 1-2.898 1.872c-.478.16-.956.309-1.444.448l-.786-.527a14.335 14.335 0 0 0-.986-2.221c-1.145.667-2.012 1.593-2.779 2.659-1.772 1.663-1.842 4.222 1.116 4.312-.04-1.325-.26-2.59-.668-3.764l.767.07c2.779.378 5.149-.778 6.553 2.3l-1.195 1.045a33.959 33.959 0 0 1-4.342 2.849c-2.898.717-6.503-1.504-6.234-4.74.418-3.546 3.167-6.076 6.224-7.57zM97.443 352.568c.14 1.862-.01 3.535-.408 5.347-1.136-.328-2.271-.657-3.406-.996.03 1.235.06 2.47.11 3.695-.03 2.27 1.901 4.531 3.903 2.33l.777-.756a37.68 37.68 0 0 1-2.808-.518c-1.036-2.998 3.067-4.243 5.039-5.517.468 2.42.527 4.87-.03 7.29-1.165 2.868-5.487 4.262-7.768 1.832-2.749-3.038-2.61-7.23-1.175-10.855 1.723-1.464 3.625-1.593 5.766-1.852z" fill="#fff"/><path d="M45.197 354.77c.389.708.717 1.445.986 2.222-.807.537-1.653.896-2.55 1.055l-.766-.07-.448-.547c.767-1.066 1.633-1.992 2.778-2.66z" fill="#ffc600"/><path d="M62.443 356.96c-.1.866-.19 1.722-.279 2.589l-.607-2.042c-2.39-1.255-5.278-1.703-7.908-2.25 2.968-.37 5.946.886 8.794 1.702z" fill="#5ab70f"/><path d="M53.652 355.256c2.63.548 5.517.996 7.908 2.251l.607 2.041-3.635-.298c-.876-.09-1.743-.18-2.619-.26-.488 2.042 3.326 2.321 4.561 3.277l-1.723 1.524a74.32 74.32 0 0 1-3.934-.22l-.478 1.305c-.119.349-.248.698-.368 1.036 2.032.369 4.063.737 6.075 1.235l-.1 2.42c-2.121-.16-4.292-.339-6.363-.857-1.066-.398-3.197-.567-2.65-2.22.369-2.38 1.445-4.66 1.982-7.011.359-1.026-.597-4.053.737-4.223z" fill="#fff"/><path d="M109.363 355.555l.349 1.902c-1.852-.08-3.167-2.718-.349-1.902z" fill="#83d311"/><path d="M46.183 356.99l.787.527c.488-.14.966-.289 1.444-.448.836.896 1.703 1.772 2.53 2.679a99.994 99.994 0 0 0-1.953 1.643l1.196-1.046c-1.405-3.077-3.775-1.922-6.553-2.3.896-.16 1.742-.518 2.55-1.056zM72.138 358.714c-2.729-1.135-4.72-2.031-7.628-.697 2.4-1.762 5.736-1.782 7.628.697zM84.634 356.541c-.16.956-.33 1.922-.508 2.878l-.14-2.55c-3.326.05-6.463.887-9.71 1.504 3.247-1.553 6.792-2.031 10.358-1.832zM42.419 357.43l.448.548c.408 1.175.627 2.44.667 3.764-2.958-.09-2.888-2.65-1.115-4.312z" fill="#5ab70f"/><path d="M72.138 358.714a12.46 12.46 0 0 0-1.344 2.61l-2.211-.598c-2.948-.876-1.614 1.902.498 1.683l.338.14c2.61 1.932 2.759 2.788 2.689 6.064-2.61 3.277-7.06 3.376-9.46-.149.477-1.315 1.592-1.653 2.758-2.151.11 1.275 2.828 2.729 3.336 1.145l.368-.996c-1.733-1.035-3.585-1.962-5.188-3.187-1.195-1.752-.299-3.615.587-5.258 2.908-1.334 4.9-.438 7.628.697zM83.984 356.87l.14 2.549-1.295.478c-.737.249-1.474.488-2.211.727.189 3.157.597 6.204 1.354 9.271-.687.638-1.812.917-3.366.847a70.134 70.134 0 0 1-1.125-9.56c-1.315.189-2.64.388-3.954.577-.358-1.603-.11-2.729.747-3.386 3.247-.617 6.384-1.454 9.71-1.504z" fill="#fff"/><path d="M55.915 358.99c.877.08 1.743.17 2.62.26l-1.046.896c1.185.727 3.077.388 2.987 2.121-1.235-.956-5.049-1.235-4.56-3.276zM82.834 359.902l-1.594.618c-.239 3.166 1.355 6.323.737 9.38-.757-3.067-1.165-6.114-1.354-9.27.737-.24 1.474-.479 2.21-.728zM68.583 360.724l.498 1.683c-2.112.219-3.446-2.56-.498-1.683zM93.738 360.62c1.295.786 2.59 1.573 3.904 2.33-2.002 2.2-3.934-.06-3.904-2.33z" fill="#5ab70f"/><path d="M69.42 362.546c3.395.707 3.415 3.187 2.688 6.065.07-3.277-.08-4.133-2.689-6.065zM17.562 362.778c3.625 2.061 7.25 4.142 10.825 6.303-7.888 13.714-8.395 30.872-1.325 45.024 5.786 11.84 16.492 20.713 29.01 24.687.916-2.938 1.753-5.886 2.768-8.793 2.918 6.393 6.105 12.169 11.144 17.169-5.706 5.666-12.498 9.53-19.718 12.926h-.418c.697-3.117 1.603-6.174 2.589-9.211-7.628-2.54-14.798-6.125-20.943-11.343-12.16-9.89-20.027-24.628-21.69-40.193-1.354-12.509 1.255-25.744 7.758-36.569z" fill="#206c41"/><path d="M54.34 364.876c2.17.717 4.301 1.454 6.572 1.813a29.583 29.583 0 0 0-.966 2.878l.1-2.42c-2.012-.498-4.044-.866-6.075-1.235.12-.338.249-.687.368-1.036zM65.4 366.31c1.027-.298 2.142.09 3.337 1.146-.508 1.583-3.227.13-3.336-1.146z" fill="#5ab70f"/></g></svg>