<svg width="635pt" height="127pt" viewBox="0 0 635 127" xmlns="http://www.w3.org/2000/svg"><path d="M0 0h635v127H0V52.63c1.01 3.37 2.42 5.13 5.33 7.03 1.04 1.05 3.3.77 3.33-.78-.46-2.67-1.88-6.19-.46-8.73 1.18-2.47 3.2-6.18 6.1-6.79 1.94 10.07 5.32 19.91 8.53 29.63 1.43 7.75 4.72 15.4 7.34 22.88 1.29 4.17 2.94 8.2 4.7 12.19.52 1.52 2.68 2.28 4.14 2.16 2.23-.97 4.31-2.22 6.57-3.13-.4-3.42-2.44-5.9-3.46-9.1-2.22-7.03-5.07-13.82-7.17-20.9a6.38 6.38 0 0 0 8.51-1.62c5.94-6.94 9.51-15.21 8.8-24.48-1.23-4.8-1.7-10.73-4.26-14.97-1.92-2.38-4.29-5.83-7.42-6.52-2.81-.66-5.67-2.29-8.56-2.21-5.82.23-11.63 1.57-17.06 3.65a59.266 59.266 0 0 1-6.15 3.86C4.8 38.1 1.32 41.79 0 46.98V0z" fill="#fff"/><path d="M65.01.46c2.31 1.86 5.51 4.06 6.38 7.03 2.21 8.13 1.04 16.29-2.03 24-.52 2.75-2.44 4.91-3.1 7.47 3.34 10.87 7.19 21.65 11.43 32.2-3.45.27-6.91.5-10.37.73-1.8-6.06-4.13-11.97-5.95-18.04-.58-1.84-1-3.67-2.06-5.32-1.06 1.04-2.04 1.94-3.41 2.56-.92-2.95 3.31-4.6 2.5-7.08-3.94-11.94-5.87-24.46-5.3-37.03.25-1.54.76-3.84 2.37-4.49C58.41 1.22 61.87 1 65.01.46z" fill="#6fc418"/><path d="M62.11 6.74l1.13-.47c1.7 4.7 2.77 9.73 3.02 14.73.18 4.12-1.01 7.84-2.02 11.76-1.08-2.53-1.1-5.06-1.48-7.75-.77-6.19-1.64-12.01-.65-18.27z" fill="#fff"/><path d="M144.8 12.2c2.9 5.19 5.03 10.94 6.6 16.67 1.1 3.24 1.86 7.21 3.82 10.01 1.24-4.11 1.39-7.62 1.17-11.86 1.01-4.85-1.07-9.2-.62-14.06.1-2.01 2.68-1.36 3.92-.91.32 3.33.89 6.59.82 9.95-.04 4.29.82 8.73.58 12.98-.84 4.4-2.02 8.7-3.15 13.02 2.14 9.36 6.01 18.16 6.28 28.03-.54 3.51-3.53 6.85-6.37 8.83-2.34 1.78-5.3 1.33-7.8.14-3-1.53-5.8-3.81-6.76-7.18-1.91-5.46-.79-10.53.59-15.95 1.08-4.03 3.48-7.25 5.03-11.03-.05-1.27-.6-2.53-1-3.73-1.83-4.68-2.87-9.58-4.77-14.24-.69-1.55-.85-3.8-2.1-4.99 1.03 8.57.73 17.13-.79 25.63-.38 1.41-2.48 1.63-3.67 2.05-3.06 1.07-6.11-1.25-9.08-2.11-.74-1.6-1.41-3.23-2.07-4.86.71 3.72 1.69 7.62 1.76 11.42-.49 2.34-1.1 4.82-2.24 6.94-2 1.14-4.73 1.32-6.99 1.76-2.84-1.01-6.69-2.93-7.43-6.16-1.21-3.55-3.11-6.72-3.93-10.42-.52-1.23-.61-3.51-1.99-4.01-1.06 5.91-1.43 11.97-2.52 17.87-.34 1.26-1.8 2.77-3.1 3.02-3.76 1.61-7.24-1.85-10.35-3.63.07 2 .18 4 .38 5.99-1.58.09-3.16.1-4.74.18.16-6.17 0-12.53-1.51-18.54-1.43-6.8-.2-13.82 3.52-19.68 1.99-2.75 6.64-2.84 9.7-3.53 3.19-.65 5.69-.47 7.82 2.21-3.9 1.39-7.2 2.51-9.74 6.04-1.65 6.88-1.35 14.12.23 20.99 4.8-5.42 3.37-15.66 7.2-21.42 1.81-.52 3.7-.82 5.54-1.19 1.9 1.03 5.13 1.39 6.2 3.38 2.92 6.37 3.91 13.61 6.87 19.93.32-2.2.48-4.39.21-6.61-.69-6.28-.23-12.68-.73-18.97-1.08-3.43-2.55-6.73-3.62-10.15-.43-1.49.09-3.64 1.41-4.58 2.35-1.21 4.88-1.45 7.5-1.35.94 2.77 1.72 5.58 2.69 8.33 2.31 5.57 3.32 11.36 6.4 16.62.14.72.64.96 1.5.73 1.08-4.56 1.47-9.07 1.33-13.76.51-5.3 1.06-10.52 1.19-15.85 2.15-.99 4.33-3.16 6.81-1.95zM32.02 27.29c2.89-.08 5.75 1.55 8.56 2.21 3.13.69 5.5 4.14 7.42 6.52 2.56 4.24 3.03 10.17 4.26 14.97.71 9.27-2.86 17.54-8.8 24.48a6.38 6.38 0 0 1-8.51 1.62c2.1 7.08 4.95 13.87 7.17 20.9 1.02 3.2 3.06 5.68 3.46 9.1-2.26.91-4.34 2.16-6.57 3.13-1.46.12-3.62-.64-4.14-2.16-1.76-3.99-3.41-8.02-4.7-12.19-2.62-7.48-5.91-15.13-7.34-22.88-3.21-9.72-6.59-19.56-8.53-29.63-2.9.61-4.92 4.32-6.1 6.79-1.42 2.54 0 6.06.46 8.73-.03 1.55-2.29 1.83-3.33.78C2.42 57.76 1.01 56 0 52.63v-5.65c1.32-5.19 4.8-8.88 8.81-12.18 2.17-1.18 4.14-2.43 6.15-3.86 5.43-2.08 11.24-3.42 17.06-3.65z" fill="#6fc418"/><path d="M33.02 36.84c3.44 1.11 8.14 3.26 8.97 7.18 1.29 3.4 1.37 7.42 1.46 11.03-1.44 5.93-5.05 11.43-9.54 15.48-1.51-2.56-2-5.7-2.98-8.51-1.91-5.85-3.47-11.8-5.26-17.68-1.93-2.08-3.95-3.98-6.71-4.86 3.59-3.24 9.54-2.35 14.06-2.64zM151.7 60.05c2.1 4.67 3.04 9.9 3.57 14.96.15 2.07-1.05 3.19-2.3 4.61-3.34-2.96-3.42-6.64-4.6-10.63.36-2.69.82-7.35 3.33-8.94z" fill="#fff"/><path d="M447.73 79.02c-.46 2.96-3.62 5.97-5.62 8.18-1.44 1.5-2.6-.84-3.74-1.55-3.9-3.73-11-4.18-14.79-.08-4.25 4.62-4.49 13.32.04 17.81 4.16 3.78 10.02 2.99 14.82.99-.36-3.96-1.19-7.94-.83-11.81 4.55.5 9 .31 13.55.23.76 4.33-.41 8.8 0 13.2-.08 3.72.9 7.68.19 11.32-3.42.11-6.77-2.33-9.87-.95-5.75 2.01-12.06 2.61-17.99 1.08-8.37-2.28-14.8-9.85-15.86-18.44-1.54-9.9 1.94-20.31 10.77-25.64 8.95-5.35 23.65-3.79 29.33 5.66zM77.69 71.16l2.37-.18c-.07 2.27-.13 4.52.17 6.78.07 1.47.09 2.94.06 4.39-3.17.16-6.33-.05-9.5-.22l-1.02-.08c-.04 4.39 0 8.77-.03 13.15-.09 7.53.78 14.81.45 22.35-4.21.47-8.6.68-12.81.11-1.59-.28-1.05-3.29-1.13-4.47.32-6.33.47-12.66.75-18.99-.06-3.99-.42-7.95-.2-11.95-3.7.23-7.53.73-11.22.46 1.01-3.75 1.11-7.63 2.03-11.38 6.48.82 13.18 1.05 19.71.76 3.46-.23 6.92-.46 10.37-.73zM84.28 71.55c1.58-.08 3.16-.09 4.74-.18 2.34-.25 4.66-.55 7.01-.58-.19 6.14-.42 12.25-.23 18.4 3.57-2.27 6.73-4.57 11.21-4.21 4.56.03 9.11 3.14 9.23 8.01.04 7.34 0 14.69.01 22.03.05.86-.2 1.7-.74 2.51-2.76.45-5.72.23-8.52.15-1.22 0-2.53-.37-2.67-1.77-.18-5.29-.12-10.62.16-15.92-.08-1.89-.21-3.93-2.41-4.41-2.35-.96-7.02 1.42-6.32 4.4-.02 5.34-.07 10.66.21 15.99-.35.62-.74 1.23-1.16 1.81-3.43-.3-7.58.68-10.69-.87-.23-7.95-.07-15.93-.09-23.88.04-3.04-.12-6.02-.46-9.03-.07-3.97-.13-7.89-.54-11.84l1.26-.61zM179 71.24c6.56.14 13.61-.42 20.02.78 2.81.53 5.43 1.38 7.47 3.49 2.8 2.78 3.31 6.76 2.96 10.53-.41 2.74-2.47 4.9-4.18 6.95 6.43 3.95 6.8 13.32 2.72 19.02-3.13 4.4-8.89 5.65-13.97 5.75-6.28-.07-12.57.12-18.84-.11-1.18-.19-3.3.04-3.37-1.61-.32-7.32.77-14.7.71-22.04-.19-7.37-.56-14.73-.77-22.09 2.12-1.03 4.92-.58 7.25-.67zM218.49 72.64c2.79-.92 5.9-.25 7.83 2.02 2.21 2.66 1.37 8.14-2.43 8.92-3.37.88-7.51.39-9.15-3.1-1.39-3.26.39-6.84 3.75-7.84zM590.49 72.61c2.33-.79 4.79-.26 6.8 1.08 2.94 2.13 2.86 7.48-.24 9.38-3.12 1.51-8.19 1.24-10.12-2.03-1.83-3.39-.07-7.34 3.56-8.43zM367.86 74.9c3.65.64 8.22.69 11.55 2.03.16 3.09-.44 6.22-.44 9.32 2.85.63 5.78-.43 8.55.24.36 1.74-.28 3.72-.22 5.51-.07 1.76.56 3.2-.41 4.78-2.15.21-5.81-.64-7.52.5 0 2.92-.82 6.99.77 9.56 2.65 1.69 5.21.24 8.13.02.11 2.39-.03 4.74-.41 7.1-.12 1.51-1.2 1.81-2.37 2.41-3.63 1.66-7.57 1.94-11.5 1.48-2.84-.56-5.37-1.8-6.13-4.84-.4-5.33.12-10.75.12-16.02-1.25-.37-2.5-.71-3.74-1.12-.01-2.75-.02-5.51.11-8.26.89-.4 3.34-.46 3.33-1.72.33-3.7-.58-7.29.18-10.99z" fill="#005726"/><path d="M80.23 77.76c1.17 1.81 1.27 5.41 3.33 6.24.34 3.01.5 5.99.46 9.03-2.25.17-4.19.65-6.14-.85-3.08-2.61-4.97-6.85-7.09-10.25 3.17.17 6.33.38 9.5.22.03-1.45.01-2.92-.06-4.39z" fill="#6fc418"/><path d="M185.05 81.01c2.9-.32 6.41-.57 9.17.54 2.33.86 2.76 4.12 1.08 5.78-2.78 1.75-6.7 1.73-9.8 1.15-1.12-1.82-.3-5.31-.45-7.47z" fill="#fff"/><path d="M357.66 83.27c1.51 2.63 3.92 5.45 4.26 8.5-2.8-.03-6.52-.31-7.19 3.24.33 2.28 3.03 4.1 4.33 5.96 3.1 3.66 2.76 9.17-.37 12.68-3.59 3.08-7.83 4.74-12.51 5.25-2.08-2.51-4.34-5.43-5.18-8.63 1.97-.37 4.05-.58 5.95-1.24 1.39-.63 2.64-2.01 1.75-3.59-1.93-3.83-6.12-5.56-6.23-10.43-.31-7.35 8.67-12.29 15.19-11.74zM138.01 84.1c7.43.64 13.38 7.53 13.51 14.89.11 1.5-.12 4.09-1.97 4.41-5.14.79-10.37 1.15-15.55 1.59-1.15 0-2.14.28-2.98.83 1.85 2.13 4.1 3.37 6.98 3.26 3.47.1 5.87-1.6 8.75-3.21 1.46 2.35 2.92 4.52 3.76 7.19-.59 2.04-3.52 3.38-5.34 4.17-6.69 2.29-15.57 1.66-20.73-3.67-5.11-5-5.6-13.84-3.01-20.15 2.85-6.59 9.52-10.07 16.58-9.31zM329.13 84.89c6.49 2.33 10.83 9.3 9.97 16.14-.31 1.22-.79 2.35-2.2 2.46-5.97.77-11.98 1.26-17.98 1.72.78 2.98 4.35 3.96 7.07 3.88 3.22.01 5.55-1.57 8.14-3.23 1.89 2 3.15 4.64 4.06 7.21-.55 1.96-3.32 3.27-5.05 4.08-7.12 2.53-16.75 1.69-21.84-4.49-4.83-5.69-4.88-15.17-1.08-21.4 3.85-6.35 12.04-8.71 18.91-6.37zM493.99 84.15c8.19-1.4 16.13 4.73 17.31 12.83.28 1.83.62 5.1-1.19 6.25-5.24 1.04-10.77 1.24-16.11 1.75-1.14.01-2.13.29-2.96.83 1.98 2.56 4.8 3.53 7.98 3.23 2.94-.17 5.2-1.82 7.74-3.18 1.48 2.31 2.72 4.74 3.89 7.22-1.87 3.2-6.15 4.71-9.63 5.15-6.48.86-13.22-.47-17.55-5.69-3.75-4.5-3.93-9.99-3.19-15.56 1.29-6.75 6.75-12.2 13.71-12.83zM527.99 84.09c8.42-1.2 16.27 5.58 16.94 13.9.17 1.71.28 4.28-1.42 5.29-6.09 1.05-12.36 1.37-18.52 1.9.06 2.59 2.9 3.39 4.98 3.81 3.91.58 6.93-1.05 10.05-3.13 1.73 2.11 2.99 4.54 3.93 7.09-.4 2.23-3.87 3.74-5.79 4.48-6.8 2.02-15.4 1.36-20.48-4.1-4.54-4.68-4.85-11.28-3.68-17.36 1.73-6.57 7.13-11.38 13.99-11.88zM622.02 84.19c7.86 1.12 13.6 9.06 12.68 16.86-.23 1.09-.74 1.85-1.55 2.26-6.17 1.31-12.85.81-18.91 2.38 4.27 5.41 10.84 3.61 15.7.13 1.38 2.27 3.61 5.09 3.74 7.8-1.62 2.14-4.23 3.41-6.78 4.1-6.47 1.54-13.78.94-18.84-3.8-5.6-5.11-6.06-14.41-3.16-21 3.08-6.58 10.04-9.78 17.12-8.73zM253.09 88.62c.16-1.12.32-2.23.47-3.35 3.75.24 7.52.6 11.24 1.1 1.39.35.84 2.59.9 3.62-.51 7.32.1 14.71-.35 22.03-.45 4.84-1.72 9.61-6.23 12.18-4.99 2.69-11.66 2.69-17.12 1.71-2.84-.56-5.59-.77-7.9-2.7.61-2.59 1.21-5.17 1.89-7.74 4.68 1.27 8.45 3.73 13.52 1.94 2.81-1.03 4.16-2.22 4.21-5.36-5.08 2.86-11.05 3.67-16.14.36-7.43-4.72-8.54-16.39-3.13-22.97 4.51-5.51 13.86-6.66 18.64-.82zM291.37 88.59l.3-3.3c3.9.26 7.94.45 11.76 1.27.91 4.8-.09 10.5.06 15.44-.16 5.05.64 10.79-1.04 15.53-.96 2.84-2.5 5.32-5.24 6.71-4.76 2.52-11 2.64-16.21 1.79-3.15-.58-6.14-.7-8.71-2.78.78-2.46.76-5.86 2.45-7.87 4.97 2.29 10.39 4.18 15.38.8 1.63-1.05 1.52-2.49 1.84-4.2-4.99 2.81-10.51 3.7-15.7.77-8.43-4.92-9.4-18.28-2.26-24.72 4.94-4.35 12.85-4.6 17.37.56zM466.73 85.09c.11 1.24.22 2.47.34 3.71 3.67-1.78 6.67-3.71 10.98-2.92-.26 3.67-.25 7.34-.36 11.01-.64 2.79-5.17.67-7.25 1.58-2.35.48-2.29 2.57-2.44 4.52.16 4.71.32 9.42.41 14.13-2.79.72-5.57.77-8.42.57-1.37-.19-2.59.09-3.6-1.04-.61-10.06.83-19.76-1.55-29.72 3.96-.6 7.91-1.52 11.89-1.84zM559.85 85.02c.12 1.35.25 2.7.39 4.05 3.11-1.17 5.39-3.29 8.77-3.95 3.38-.47 6.9.1 9.58 2.32 1.88 1.74 2.45 4.07 2.42 6.56-.02 7.69.02 15.39-.04 23.09-3.33 1.07-7.14.76-10.56.38-.82-.26-1.27-.77-1.34-1.51-.23-4.66.5-9.29.05-13.97-.28-2.04.43-5.13-1.69-6.31-2.83-1.33-4.83.24-6.72 2.21.09 5.38.02 10.75.06 16.13-.11 1.44.26 2.61-1.19 3.44-2.95.48-6.18.42-9.14.04-.97-.13-1.52-.61-1.63-1.43-.31-9.81.63-19.43-1.28-29.15 4.12-.55 8.2-1.33 12.32-1.9zM586.28 86.3c4.25-.03 8.42.39 12.68-.13.51 3.22-.29 6.57-.28 9.83-.54 7 .21 13.92.09 20.92-3.65 1.4-8.25.94-12.03.25.04-3.39-.07-6.79.06-10.18.54-6.84-.34-13.86-.52-20.69zM214.28 86.33c4.4.14 8.8-.03 13.18.12-1.17 10.04-.58 20.33-.69 30.46-3.59 1.46-8.29.92-12.03.26.21-10.33.57-20.53-.46-30.84z" fill="#005726"/><path d="M135 92.7c3.02.03 3.93 2.13 5.1 4.51-2.53 1.27-7.17 2.17-9.74.9.67-2.58 1.46-5.31 4.64-5.41zM321.04 93.03c3.64-1.26 5.55 1.22 6.77 4.24-2.54 1.34-5.77 1.38-8.59 1.49-2.41-1.11.3-4.92 1.82-5.73zM493.14 93.16c3.57-1.54 5.79.95 6.9 4.1-2.58 1.37-5.9 1.46-8.76 1.43-1.95-1 .42-4.87 1.86-5.53zM527.97 92.74c2.93-.43 5.49 2.24 5.13 5.13-2.91.24-6.61 1.59-9.32.25.66-2.31 1.37-5.04 4.19-5.38zM616.27 93.28c3.19-1.91 6.89 1.09 6.7 4.52-2.8.44-5.8 1.15-8.63.84-1.41-1.41.52-4.54 1.93-5.36zM247.14 94.26c4.27-1.32 8.02 3.7 6.38 7.61-1.18 3.58-5.84 5.03-8.6 2.23-3.3-3.02-2-8.54 2.22-9.84zM284.48 94.58c3.66-1.93 7.86 1.6 7.55 5.43-.15 4.11-4.09 6.91-7.96 4.9-3.98-2.39-3.7-8.28.41-10.33zM185.39 98.81c3.26-.26 6.28-.52 9.48.43 3.23 1.23 3.28 6.3.04 7.6-3.09.66-6.51.57-9.63.11-.26-2.74-.35-5.42.11-8.14z" fill="#fff"/></svg>