<svg width="65pt" height="56pt" viewBox="0 0 65 56" xmlns="http://www.w3.org/2000/svg"><path d="M0 0h65v56H0V0z" fill="#fefffe"/><path d="M50.16 7.12c2.41-.97 5.67.67 6.71 2.94 1 2.96 1.57 6.19 1.8 9.31.25 1.34-.98 2.55-1.71 3.56-3.05 3.54-6.47 6.77-9.79 10.05-1.69-1.78-3.4-3.81-5.41-5.22-3.13-.57-6.61.2-9.76.52.11-1 .23-2.01.34-3.02 1.74-.59 3.49-1.17 5.24-1.76-.37-2.36-2.01-4.88-.01-6.87 3.16-4.05 7.54-8.08 12.59-9.51z" fill="#c7c7c7"/><path d="M52.85 9.18c2.47.79 2.72 4.29 3.51 6.35-3.31-1.53-6.22-3.38-9.06-5.66 1.75-.28 3.79-1.06 5.55-.69z" fill="#fefffe"/><path d="M6.28 12.02c4.17.01 5.53 1.43 7.98 4.5-1.29-.09-2.57-.18-3.85-.26l.27 2.64c-1.41-.94-2.81-1.87-4.17-2.87-.15-1.33-.23-2.67-.23-4.01zM16.21 12.25c.76 12.51-1.63 24.69.24 37.2 1.23.67 2.46 1.33 3.69 2-4.19 1.15-7.92 1.22-12.2.61 1.15-1 2.31-1.98 3.48-2.97-.04-11.23.7-22.34 3.32-33.29.47-1.19.96-2.37 1.47-3.55z" fill="#86c35a"/><path d="M24.94 22.79c-.85 3.18-3.18 4.41-5.69 6.11l.68-2.64c-1.14.04-2.28.08-3.42.1 1.62-2.83 5.24-6.63 8.43-3.57z" fill="#86c35a"/><path d="M29.65 27.68l.63 4.31c-.63.7-1.26 1.4-1.88 2.11-.61-1.02-1.21-2.04-1.79-3.08.98-1.14 2.01-2.24 3.04-3.34z" fill="#c7c7c7"/><path d="M9.26 30.29l.69 2.85c-.83.05-1.66.11-2.49.17.04.93.09 1.86.14 2.79-2.8-1.56-4.59-2.94-6.62-5.41 2.76-.25 5.51-.37 8.28-.4zM21.05 37.74c2.38 1.03 5.69 1.66 7.2 3.97a92.43 92.43 0 0 1-3.02 3.54c-1.16-.9-2.42-1.8-3.43-2.87-.45-1.49-.55-3.11-.75-4.64z" fill="#86c35a"/><path d="M28.58 36.43c.72 1.32 1.43 2.64 2.11 3.98 1.44 4.07 2.31 8.1 4.91 11.67-2.82.2-5.62.35-8.44.42 2.3-5.3 1.39-10.47 1.42-16.07zM39.95 37.89c-.22 1.44-.37 2.94-.77 4.35-1.19 1.4-3.08 2.28-4.62 3.26.06-.82.11-1.64.16-2.46l-1.87.41c.18-1.08.38-2.17.6-3.25 2.12-.91 4.31-1.59 6.5-2.31z" fill="#86c35a"/></svg>